<svg id="svg" version="1.1" xmlns="http://www.w3.org/2000/svg" xmlns:xlink="http://www.w3.org/1999/xlink" width="400" height="400" viewBox="0, 0, 400,400"><g id="svgg"><path id="path0" d="M299.782 199.872 C 299.332 199.961,298.264 200.657,297.409 201.417 C 296.554 202.178,295.690 202.800,295.490 202.800 C 295.289 202.800,294.043 203.623,292.720 204.629 C 291.397 205.635,290.072 206.551,289.775 206.665 C 289.479 206.779,288.555 207.513,287.724 208.297 C 286.893 209.082,285.580 210.012,284.806 210.365 C 284.033 210.719,282.544 211.861,281.498 212.904 C 280.451 213.947,279.326 214.800,278.998 214.800 C 278.669 214.800,278.400 214.983,278.400 215.206 C 278.400 215.430,277.736 215.925,276.923 216.306 C 276.111 216.688,275.076 217.325,274.623 217.721 C 272.144 219.893,268.846 222.332,268.041 222.587 C 267.064 222.897,266.977 222.965,263.659 226.016 C 262.482 227.099,260.935 228.146,260.222 228.343 C 259.508 228.540,258.220 229.434,257.359 230.331 C 256.498 231.227,255.120 232.241,254.297 232.585 C 253.473 232.929,252.800 233.358,252.800 233.538 C 252.800 233.718,251.887 234.457,250.772 235.179 C 249.657 235.902,248.442 236.814,248.072 237.205 C 247.450 237.863,246.293 238.621,243.501 240.199 C 242.896 240.540,241.616 241.606,240.655 242.566 C 239.695 243.526,238.480 244.443,237.955 244.604 C 237.430 244.766,236.262 245.495,235.360 246.226 C 232.432 248.599,230.239 250.200,228.257 251.412 C 227.188 252.065,225.588 253.356,224.700 254.279 C 223.813 255.203,222.431 256.221,221.628 256.542 C 220.826 256.863,219.273 257.908,218.179 258.863 C 216.151 260.633,215.520 261.081,213.400 262.254 C 212.740 262.619,211.300 263.668,210.200 264.585 C 209.100 265.503,207.300 266.819,206.200 267.511 C 203.165 269.420,201.772 270.450,199.904 272.165 C 198.967 273.026,197.480 274.051,196.600 274.444 C 195.720 274.837,194.773 275.528,194.497 275.979 C 194.220 276.431,193.725 276.800,193.397 276.800 C 193.068 276.800,192.800 276.964,192.800 277.165 C 192.800 277.555,188.669 280.477,187.500 280.913 C 187.115 281.057,186.800 281.348,186.800 281.560 C 186.800 281.773,186.478 282.048,186.083 282.174 C 185.689 282.299,184.564 283.141,183.583 284.046 C 182.603 284.952,181.078 286.020,180.197 286.422 C 179.315 286.823,177.759 287.951,176.739 288.928 C 175.719 289.906,174.641 290.786,174.343 290.886 C 173.456 291.181,173.331 347.274,174.215 348.158 C 174.789 348.732,174.942 348.727,175.923 348.098 C 177.786 346.903,181.440 344.075,182.016 343.381 C 182.319 343.015,183.475 342.307,184.584 341.808 C 185.693 341.309,187.230 340.234,188.000 339.419 C 188.770 338.604,189.965 337.699,190.656 337.408 C 191.347 337.116,192.607 336.269,193.456 335.525 C 195.055 334.125,197.701 332.098,198.841 331.400 C 200.915 330.130,203.145 328.434,205.707 326.175 C 206.316 325.639,206.983 325.200,207.189 325.200 C 207.731 325.200,209.988 323.614,212.504 321.465 C 213.704 320.439,214.867 319.600,215.088 319.600 C 215.309 319.600,216.190 319.057,217.045 318.394 C 217.900 317.730,219.014 316.875,219.520 316.494 C 220.026 316.112,221.016 315.345,221.720 314.788 C 223.455 313.417,226.183 311.600,226.506 311.600 C 226.651 311.600,227.613 310.780,228.644 309.778 C 229.675 308.776,231.009 307.858,231.609 307.738 C 232.209 307.618,233.293 306.891,234.018 306.122 C 235.257 304.808,236.752 303.686,239.775 301.800 C 241.298 300.850,244.016 298.753,246.101 296.920 C 246.927 296.194,247.917 295.596,248.301 295.590 C 248.686 295.585,250.440 294.324,252.200 292.788 C 253.960 291.252,255.751 289.883,256.181 289.745 C 256.610 289.608,257.988 288.664,259.242 287.647 C 260.496 286.631,262.291 285.350,263.230 284.800 C 264.170 284.250,266.032 282.891,267.369 281.780 C 268.706 280.669,270.790 279.161,272.000 278.430 C 273.210 277.699,275.047 276.313,276.083 275.350 C 277.118 274.388,278.170 273.600,278.420 273.600 C 278.860 273.600,283.778 269.996,285.400 268.485 C 285.840 268.075,287.190 267.138,288.400 266.402 C 289.610 265.666,291.320 264.394,292.200 263.574 C 293.080 262.754,294.520 261.717,295.400 261.270 C 296.280 260.822,297.945 259.582,299.100 258.513 L 301.200 256.571 301.200 228.085 C 301.200 212.418,301.065 199.625,300.900 199.654 C 300.735 199.684,300.232 199.782,299.782 199.872 " stroke="none" fill="#ed1d25" fill-rule="evenodd"></path><path id="path1" d="M107.858 147.536 C 107.186 148.279,106.758 348.491,107.427 349.160 C 107.881 349.615,163.959 349.650,164.807 349.196 C 165.600 348.772,166.132 151.958,165.350 148.050 L 165.100 146.800 136.812 146.800 C 109.852 146.800,108.493 146.835,107.858 147.536 M300.000 199.461 C 299.449 199.752,299.269 199.988,299.600 199.988 C 300.290 199.988,301.470 199.320,301.188 199.089 C 301.085 199.004,300.550 199.171,300.000 199.461 M173.295 319.726 C 173.201 347.050,173.274 348.809,174.514 348.794 C 174.818 348.790,174.775 348.645,174.400 348.409 C 173.879 348.079,173.773 344.341,173.595 320.115 L 173.389 292.200 173.295 319.726 M193.775 335.300 L 192.600 336.600 193.900 335.425 C 195.112 334.330,195.384 334.000,195.075 334.000 C 195.006 334.000,194.421 334.585,193.775 335.300 " stroke="none" fill="#f4841c" fill-rule="evenodd"></path><path id="path2" d="M242.400 57.660 C 241.630 58.126,240.550 58.811,240.000 59.184 C 239.450 59.557,238.431 60.058,237.735 60.298 C 237.039 60.538,235.488 61.533,234.289 62.510 C 233.090 63.487,231.601 64.413,230.981 64.569 C 230.361 64.725,229.333 65.290,228.696 65.826 C 228.060 66.362,227.302 66.800,227.012 66.800 C 226.723 66.800,226.382 67.070,226.255 67.400 C 226.129 67.730,225.783 68.000,225.487 68.000 C 225.192 68.000,224.446 68.525,223.831 69.168 C 223.216 69.810,222.279 70.444,221.749 70.577 C 221.220 70.710,219.777 71.489,218.543 72.309 C 217.309 73.129,215.963 73.996,215.552 74.236 C 215.142 74.475,214.483 74.963,214.088 75.320 C 213.694 75.677,212.747 76.259,211.985 76.612 C 209.391 77.815,207.085 79.138,206.812 79.580 C 206.421 80.213,202.324 82.800,201.713 82.800 C 201.431 82.800,200.885 83.082,200.500 83.426 C 199.554 84.272,197.221 85.868,196.019 86.491 C 195.479 86.771,194.633 87.405,194.137 87.900 C 193.642 88.395,192.890 88.800,192.467 88.800 C 192.044 88.800,191.480 89.063,191.213 89.385 C 190.946 89.706,190.339 90.091,189.864 90.239 C 189.389 90.387,188.640 90.858,188.200 91.285 C 186.995 92.454,184.686 93.844,183.054 94.382 C 182.254 94.646,181.600 94.989,181.600 95.145 C 181.600 95.300,181.015 95.770,180.300 96.189 C 179.585 96.608,177.929 97.727,176.620 98.675 C 175.311 99.624,173.941 100.400,173.575 100.400 C 172.958 100.400,171.154 101.612,168.837 103.581 C 168.307 104.031,167.660 104.400,167.399 104.400 C 167.138 104.400,166.598 104.761,166.198 105.202 C 165.799 105.643,164.827 106.181,164.036 106.398 C 163.246 106.616,161.550 107.695,160.268 108.797 C 158.985 109.898,157.739 110.800,157.499 110.800 C 157.259 110.800,156.779 111.040,156.431 111.334 C 156.084 111.628,155.178 112.115,154.417 112.417 C 153.657 112.719,152.757 113.210,152.417 113.509 C 150.983 114.771,148.352 116.371,143.900 118.686 C 143.295 119.001,142.800 119.395,142.800 119.562 C 142.800 120.022,139.132 122.301,137.891 122.613 C 137.291 122.763,136.800 123.050,136.800 123.250 C 136.800 123.450,136.125 123.925,135.300 124.306 C 134.475 124.688,133.352 125.405,132.804 125.900 C 132.256 126.395,131.625 126.800,131.400 126.800 C 131.176 126.800,130.778 127.144,130.515 127.564 C 130.253 127.984,129.470 128.453,128.776 128.605 C 127.518 128.882,126.286 129.613,123.561 131.700 C 122.771 132.305,121.925 132.800,121.682 132.800 C 121.439 132.800,121.096 133.035,120.920 133.323 C 120.744 133.611,119.880 134.214,119.000 134.664 C 115.409 136.498,114.714 136.922,113.796 137.840 C 113.268 138.368,112.626 138.800,112.369 138.800 C 112.027 138.800,112.035 138.960,112.400 139.400 C 113.221 140.390,168.151 140.292,169.660 139.298 C 173.098 137.034,175.499 135.376,176.200 134.782 C 176.640 134.410,177.540 133.977,178.200 133.821 C 178.860 133.666,180.357 132.787,181.527 131.869 C 183.948 129.969,186.026 128.634,187.874 127.791 C 189.418 127.088,191.810 125.551,193.290 124.312 C 193.889 123.811,195.525 122.770,196.924 122.000 C 198.323 121.230,201.137 119.475,203.177 118.100 C 205.218 116.725,207.074 115.600,207.302 115.600 C 207.845 115.600,211.712 113.029,212.379 112.225 C 212.665 111.881,213.104 111.600,213.355 111.600 C 214.042 111.600,216.832 110.037,218.267 108.849 C 219.780 107.596,222.201 106.100,225.200 104.566 C 226.410 103.947,228.210 102.769,229.200 101.949 C 230.190 101.129,232.440 99.706,234.200 98.785 C 235.960 97.865,238.210 96.440,239.200 95.618 C 240.190 94.796,241.889 93.731,242.974 93.252 C 244.060 92.772,245.680 91.838,246.574 91.177 C 249.113 89.300,251.036 88.106,252.024 87.792 C 252.965 87.494,256.514 85.071,257.626 83.969 C 257.975 83.622,259.148 82.934,260.231 82.441 C 262.653 81.337,262.367 81.509,266.657 78.587 C 268.606 77.261,270.830 75.923,271.600 75.615 C 272.370 75.307,273.810 74.407,274.800 73.614 C 277.058 71.805,279.853 70.000,280.396 70.000 C 280.785 70.000,283.049 68.486,287.228 65.431 C 288.233 64.697,289.615 63.972,290.300 63.822 C 290.985 63.672,291.768 63.279,292.042 62.950 C 292.723 62.129,296.397 59.752,297.500 59.418 C 297.995 59.269,298.400 59.012,298.400 58.848 C 298.400 58.685,298.767 58.157,299.216 57.675 L 300.031 56.800 271.916 56.807 C 243.999 56.813,243.790 56.819,242.400 57.660 " stroke="none" fill="#a5cc37" fill-rule="evenodd"></path><path id="path3" d="M0.000 200.000 L 0.000 400.000 200.000 400.000 L 400.000 400.000 400.000 200.000 L 400.000 0.000 200.000 0.000 L 0.000 0.000 0.000 200.000 M301.809 56.410 C 302.718 57.414,300.384 60.170,298.236 60.629 C 297.556 60.774,296.678 61.232,296.284 61.647 C 295.891 62.061,295.421 62.400,295.239 62.400 C 295.058 62.400,294.231 62.940,293.400 63.600 C 292.569 64.260,291.555 64.800,291.145 64.800 C 290.735 64.800,290.400 64.953,290.400 65.139 C 290.400 65.326,289.645 65.819,288.722 66.235 C 287.800 66.651,286.585 67.411,286.022 67.924 C 285.460 68.436,284.730 69.097,284.400 69.392 C 284.070 69.686,283.260 70.167,282.600 70.460 C 281.940 70.753,280.790 71.399,280.044 71.896 C 279.298 72.393,278.475 72.800,278.213 72.800 C 277.952 72.800,276.857 73.609,275.779 74.599 C 274.648 75.638,273.267 76.501,272.510 76.643 C 271.790 76.778,271.200 77.044,271.200 77.234 C 271.200 77.424,270.615 77.879,269.900 78.246 C 269.185 78.613,268.091 79.337,267.469 79.856 C 266.847 80.375,266.012 80.800,265.612 80.800 C 265.213 80.800,264.784 81.065,264.660 81.389 C 264.441 81.960,263.184 82.716,259.744 84.348 C 258.834 84.780,258.024 85.283,257.944 85.467 C 257.693 86.048,254.627 88.274,253.653 88.583 C 253.138 88.746,252.081 89.312,251.303 89.840 C 250.525 90.368,249.704 90.800,249.478 90.800 C 249.252 90.800,248.782 91.074,248.434 91.409 C 246.753 93.025,244.669 94.336,243.401 94.573 C 242.631 94.718,242.000 94.984,242.000 95.165 C 242.000 95.666,237.428 98.745,234.395 100.286 C 233.622 100.679,232.424 101.405,231.733 101.900 C 231.042 102.395,230.322 102.800,230.133 102.800 C 229.944 102.800,229.452 103.250,229.039 103.800 C 228.626 104.350,228.043 104.800,227.744 104.800 C 227.445 104.800,226.850 105.150,226.422 105.578 C 225.995 106.005,225.005 106.475,224.222 106.622 C 223.440 106.769,222.800 107.127,222.800 107.418 C 222.800 107.708,222.405 108.072,221.922 108.225 C 221.439 108.378,219.919 109.377,218.544 110.444 C 216.923 111.701,215.486 112.473,214.457 112.637 C 213.345 112.815,212.808 113.126,212.664 113.675 C 212.552 114.107,212.086 114.557,211.630 114.676 C 211.173 114.796,210.800 115.048,210.800 115.236 C 210.800 115.696,208.623 116.800,207.716 116.800 C 207.318 116.800,206.768 117.160,206.493 117.600 C 206.218 118.040,205.749 118.400,205.452 118.400 C 205.154 118.400,204.231 118.940,203.400 119.600 C 202.569 120.260,201.743 120.800,201.563 120.800 C 201.383 120.800,200.786 121.250,200.236 121.800 C 199.686 122.350,198.896 122.800,198.480 122.800 C 198.064 122.800,197.398 123.160,197.000 123.600 C 196.602 124.040,196.061 124.400,195.797 124.400 C 195.534 124.400,194.754 124.940,194.063 125.600 C 193.372 126.260,192.558 126.800,192.253 126.800 C 191.948 126.800,191.462 127.085,191.173 127.433 C 190.657 128.054,189.178 128.920,186.400 130.227 C 185.630 130.590,184.069 131.678,182.932 132.647 C 181.795 133.615,180.310 134.518,179.632 134.654 C 178.954 134.789,178.400 135.026,178.400 135.179 C 178.400 135.333,177.590 135.863,176.600 136.357 C 175.610 136.852,174.800 137.411,174.800 137.601 C 174.800 137.791,174.395 138.073,173.900 138.227 C 173.405 138.382,172.409 139.024,171.686 139.654 C 170.963 140.284,170.054 140.800,169.666 140.800 C 169.278 140.800,168.788 140.972,168.577 141.183 C 168.154 141.606,111.037 141.832,109.972 141.415 C 108.698 140.917,109.527 138.917,111.544 137.625 C 112.565 136.972,114.172 135.888,115.116 135.217 C 116.060 134.546,117.410 133.724,118.116 133.390 C 120.019 132.491,122.030 131.181,124.025 129.541 C 125.001 128.739,126.466 127.901,127.281 127.679 C 128.095 127.457,129.751 126.493,130.959 125.538 C 133.603 123.446,136.240 121.803,137.600 121.398 C 138.150 121.235,138.922 120.763,139.316 120.350 C 139.709 119.938,140.229 119.600,140.470 119.600 C 140.711 119.600,141.320 119.195,141.823 118.700 C 143.395 117.154,144.944 116.137,146.500 115.628 C 147.325 115.359,148.000 115.000,148.000 114.832 C 148.000 114.664,148.675 114.183,149.500 113.763 C 150.325 113.343,151.126 112.824,151.279 112.610 C 151.554 112.227,153.636 111.072,156.400 109.770 C 157.170 109.407,157.890 108.995,158.000 108.855 C 158.609 108.078,161.940 105.670,162.767 105.409 C 164.006 105.018,170.000 101.162,170.000 100.757 C 170.000 100.588,171.478 99.710,173.285 98.806 C 175.091 97.901,176.846 96.890,177.185 96.559 C 178.118 95.645,181.898 93.316,184.700 91.928 C 186.075 91.247,187.200 90.565,187.200 90.412 C 187.200 89.992,191.027 87.600,191.701 87.600 C 192.193 87.600,193.509 86.729,195.800 84.888 C 197.087 83.854,200.749 81.646,201.600 81.390 C 202.150 81.225,203.140 80.658,203.800 80.128 C 206.540 77.931,209.006 76.292,210.926 75.392 C 212.837 74.495,214.760 73.235,217.137 71.321 C 218.312 70.374,219.677 69.600,220.171 69.600 C 220.665 69.600,222.190 68.700,223.561 67.600 C 224.932 66.500,226.207 65.600,226.396 65.600 C 226.584 65.600,227.247 65.177,227.869 64.661 C 228.491 64.144,229.500 63.600,230.110 63.451 C 230.721 63.302,231.531 62.911,231.910 62.583 C 234.129 60.664,235.683 59.603,238.000 58.426 C 239.430 57.700,240.870 56.880,241.200 56.605 C 242.306 55.682,242.903 55.663,272.038 55.632 C 300.710 55.600,301.085 55.610,301.809 56.410 M166.069 146.262 C 167.283 147.361,167.203 348.797,165.988 350.012 C 164.743 351.257,107.082 351.075,106.168 349.824 C 105.230 348.541,105.323 147.369,106.262 146.331 C 107.238 145.253,164.880 145.186,166.069 146.262 M302.051 198.262 C 302.505 198.809,302.600 203.973,302.600 228.197 L 302.600 257.471 300.800 259.137 C 299.810 260.054,298.640 261.151,298.200 261.575 C 297.760 261.999,296.888 262.472,296.262 262.626 C 295.636 262.780,294.247 263.737,293.174 264.753 C 290.653 267.141,289.219 268.219,288.087 268.575 C 287.585 268.733,286.752 269.253,286.236 269.731 C 283.389 272.369,280.966 274.247,279.951 274.602 C 279.320 274.822,277.947 275.772,276.902 276.711 C 273.996 279.321,272.540 280.400,271.921 280.400 C 271.612 280.400,270.378 281.298,269.179 282.396 C 267.981 283.494,266.640 284.510,266.200 284.654 C 265.760 284.797,265.165 285.249,264.877 285.657 C 264.590 286.066,264.101 286.400,263.791 286.400 C 263.481 286.400,262.613 286.940,261.861 287.600 C 261.109 288.260,260.326 288.800,260.119 288.800 C 259.913 288.800,259.353 289.250,258.875 289.800 C 258.397 290.350,257.734 290.800,257.403 290.800 C 257.071 290.800,256.800 290.976,256.800 291.192 C 256.800 291.407,256.125 291.939,255.300 292.373 C 254.475 292.808,253.096 293.888,252.236 294.775 C 251.376 295.661,250.296 296.505,249.836 296.651 C 248.959 296.928,246.921 298.376,245.262 299.900 C 244.724 300.395,243.949 300.800,243.542 300.800 C 243.134 300.800,242.800 301.074,242.800 301.409 C 242.800 301.743,242.307 302.238,241.705 302.509 C 241.104 302.779,240.298 303.310,239.916 303.690 C 239.533 304.069,238.775 304.491,238.231 304.628 C 237.687 304.764,236.958 305.309,236.612 305.838 C 236.265 306.367,235.737 306.800,235.437 306.800 C 235.138 306.800,234.801 307.152,234.689 307.582 C 234.575 308.018,233.985 308.489,233.356 308.647 C 232.735 308.803,231.864 309.268,231.421 309.681 C 230.978 310.093,230.224 310.529,229.746 310.649 C 229.267 310.769,228.782 311.226,228.667 311.664 C 228.553 312.101,228.086 312.557,227.630 312.676 C 227.173 312.796,226.800 313.055,226.800 313.253 C 226.800 313.451,226.125 313.925,225.300 314.306 C 224.475 314.688,223.387 315.405,222.882 315.900 C 222.377 316.395,221.800 316.800,221.600 316.800 C 221.400 316.800,220.801 317.205,220.268 317.700 C 217.601 320.178,216.704 320.800,215.793 320.800 C 215.168 320.800,214.800 321.027,214.800 321.413 C 214.800 321.749,214.485 322.137,214.100 322.273 C 213.715 322.409,212.929 322.988,212.352 323.560 C 210.487 325.412,209.150 326.397,208.171 326.643 C 207.644 326.775,206.421 327.630,205.452 328.542 C 203.836 330.063,202.932 330.708,200.034 332.400 C 199.469 332.730,198.770 333.315,198.481 333.700 C 198.191 334.085,197.740 334.404,197.477 334.409 C 197.215 334.413,196.125 335.295,195.055 336.368 C 193.986 337.440,192.607 338.419,191.992 338.542 C 191.376 338.665,189.965 339.673,188.855 340.783 C 187.598 342.040,186.490 342.800,185.915 342.800 C 185.408 342.800,184.768 343.160,184.493 343.600 C 184.218 344.040,183.797 344.400,183.557 344.400 C 183.317 344.400,182.613 344.895,181.991 345.500 C 180.126 347.316,178.125 348.800,177.541 348.800 C 177.239 348.800,176.768 349.160,176.493 349.600 C 175.790 350.726,172.613 350.745,172.014 349.626 C 171.494 348.655,171.438 292.478,171.955 291.118 C 172.151 290.604,172.826 289.917,173.455 289.592 C 174.085 289.267,175.320 288.260,176.200 287.354 C 177.080 286.447,178.241 285.569,178.781 285.401 C 179.320 285.232,180.850 284.218,182.181 283.147 C 186.021 280.054,188.503 278.267,190.000 277.515 C 190.550 277.238,191.235 276.695,191.523 276.306 C 191.810 275.918,192.233 275.600,192.462 275.600 C 192.691 275.600,193.370 275.105,193.970 274.500 C 194.570 273.895,195.830 272.950,196.770 272.400 C 197.711 271.850,199.047 270.896,199.740 270.280 C 200.433 269.664,201.270 268.923,201.600 268.632 C 201.930 268.342,202.740 267.804,203.400 267.437 C 204.060 267.070,205.320 266.231,206.200 265.572 C 207.080 264.914,208.250 264.070,208.800 263.697 C 209.350 263.324,209.899 262.883,210.019 262.717 C 210.415 262.171,214.189 259.600,214.599 259.597 C 214.819 259.595,215.959 258.695,217.131 257.597 C 218.303 256.499,219.619 255.600,220.055 255.600 C 220.491 255.600,221.782 254.736,222.924 253.679 C 224.929 251.824,226.373 250.730,228.153 249.718 C 229.320 249.055,230.461 248.151,233.225 245.700 C 234.527 244.545,235.965 243.600,236.420 243.600 C 236.876 243.600,238.232 242.669,239.435 241.531 C 240.638 240.393,241.954 239.268,242.359 239.031 C 242.764 238.794,243.695 238.262,244.427 237.849 C 245.159 237.436,246.789 236.266,248.048 235.249 C 251.034 232.839,252.361 231.903,253.593 231.338 C 254.147 231.084,255.470 230.049,256.534 229.038 C 257.597 228.027,258.644 227.200,258.860 227.200 C 259.077 227.200,259.843 226.750,260.564 226.200 C 261.286 225.650,261.993 225.200,262.137 225.200 C 262.281 225.200,263.153 224.468,264.075 223.574 C 264.996 222.680,266.301 221.688,266.975 221.371 C 268.580 220.615,270.914 218.896,271.319 218.173 C 271.495 217.858,271.873 217.600,272.158 217.600 C 272.443 217.600,272.990 217.253,273.374 216.828 C 273.758 216.404,275.073 215.459,276.297 214.728 C 277.520 213.998,278.920 212.995,279.407 212.500 C 279.893 212.005,280.490 211.600,280.732 211.600 C 280.974 211.600,281.373 211.225,281.618 210.766 C 281.864 210.308,282.635 209.676,283.332 209.362 C 284.861 208.675,286.799 207.258,287.519 206.300 C 287.809 205.915,288.220 205.600,288.434 205.600 C 288.648 205.600,289.983 204.700,291.400 203.600 C 292.817 202.500,294.144 201.600,294.347 201.600 C 294.693 201.600,295.887 200.652,298.252 198.500 C 299.415 197.442,301.274 197.325,302.051 198.262 " stroke="none" fill="#fcfbfb" fill-rule="evenodd"></path><path id="path4" d="M107.358 146.391 C 105.994 146.942,106.012 145.534,106.007 248.400 C 106.002 357.865,105.773 349.819,108.911 350.197 C 113.195 350.715,165.119 350.241,165.680 349.680 C 166.476 348.884,166.447 147.621,165.651 146.661 C 165.041 145.927,109.148 145.667,107.358 146.391 M165.350 148.050 C 166.132 151.958,165.600 348.772,164.807 349.196 C 163.959 349.650,107.881 349.615,107.427 349.160 C 106.758 348.491,107.186 148.279,107.858 147.536 C 108.493 146.835,109.852 146.800,136.812 146.800 L 165.100 146.800 165.350 148.050 M299.600 197.893 C 299.270 198.020,298.100 198.873,297.000 199.788 C 295.900 200.703,293.947 202.160,292.660 203.026 C 291.373 203.892,289.918 204.870,289.428 205.200 C 288.937 205.530,287.650 206.541,286.568 207.446 C 285.486 208.351,284.206 209.215,283.724 209.365 C 283.242 209.516,281.952 210.530,280.857 211.619 C 279.762 212.709,278.735 213.600,278.574 213.600 C 278.125 213.600,274.205 216.271,273.621 216.975 C 273.335 217.319,272.864 217.600,272.574 217.600 C 272.283 217.600,271.809 217.915,271.519 218.300 C 270.795 219.263,268.858 220.677,267.309 221.372 C 266.598 221.691,265.279 222.683,264.377 223.576 C 263.475 224.469,262.649 225.200,262.542 225.200 C 262.434 225.200,261.757 225.650,261.036 226.200 C 260.314 226.750,259.520 227.200,259.269 227.200 C 258.862 227.200,257.870 227.974,255.581 230.079 C 255.175 230.452,254.248 231.060,253.521 231.431 C 252.795 231.801,251.930 232.358,251.600 232.667 C 250.432 233.764,245.375 237.441,243.600 238.484 C 242.610 239.065,240.869 240.437,239.731 241.532 C 238.593 242.627,237.131 243.640,236.481 243.782 C 235.832 243.925,234.873 244.504,234.350 245.070 C 233.478 246.014,229.887 248.848,228.357 249.800 C 226.388 251.025,224.418 252.509,223.027 253.815 C 222.162 254.628,220.902 255.479,220.227 255.706 C 219.552 255.934,218.066 256.993,216.924 258.060 C 215.782 259.127,214.650 260.000,214.408 260.000 C 213.909 260.000,212.456 260.990,209.122 263.600 C 205.473 266.457,204.664 267.044,203.600 267.606 C 203.050 267.897,201.200 269.274,199.488 270.667 C 197.776 272.060,196.224 273.200,196.039 273.200 C 195.853 273.200,194.464 274.184,192.951 275.387 C 189.109 278.442,188.341 279.005,187.200 279.598 C 186.650 279.883,184.820 281.254,183.133 282.643 C 181.447 284.032,179.608 285.283,179.048 285.424 C 178.487 285.564,177.298 286.472,176.406 287.440 C 175.514 288.408,174.632 289.200,174.446 289.200 C 174.260 289.200,173.634 289.573,173.054 290.029 L 172.000 290.858 172.000 320.149 C 172.000 342.398,172.115 349.555,172.480 349.920 C 173.245 350.685,175.187 350.478,176.415 349.500 C 177.036 349.005,178.199 348.150,178.999 347.600 C 179.798 347.050,181.476 345.747,182.726 344.704 C 183.977 343.661,185.303 342.806,185.672 342.804 C 186.042 342.802,187.384 341.825,188.654 340.634 C 189.924 339.442,191.421 338.372,191.981 338.256 C 192.542 338.139,193.862 337.269,194.915 336.322 C 197.307 334.172,198.641 333.146,200.300 332.182 C 201.015 331.767,201.600 331.286,201.600 331.114 C 201.600 330.941,201.831 330.800,202.114 330.800 C 202.634 330.800,204.609 329.309,206.160 327.746 C 206.626 327.276,207.635 326.627,208.404 326.303 C 209.172 325.980,210.565 324.969,211.500 324.058 C 212.436 323.146,213.371 322.400,213.578 322.400 C 213.785 322.400,214.190 322.066,214.477 321.657 C 214.765 321.249,215.450 320.775,216.000 320.603 C 216.550 320.432,217.565 319.821,218.256 319.246 C 218.947 318.671,219.937 317.883,220.456 317.496 C 220.975 317.110,221.940 316.370,222.600 315.853 C 223.260 315.336,224.385 314.613,225.100 314.246 C 225.815 313.879,226.400 313.404,226.400 313.190 C 226.400 312.975,226.640 312.800,226.934 312.800 C 227.228 312.800,227.940 312.305,228.516 311.700 C 230.095 310.045,231.846 308.800,232.596 308.800 C 232.965 308.800,234.171 307.900,235.276 306.800 C 236.382 305.700,237.412 304.800,237.564 304.800 C 238.114 304.800,242.800 301.568,242.800 301.189 C 242.800 300.975,243.062 300.800,243.382 300.800 C 243.702 300.800,244.378 300.395,244.885 299.900 C 246.278 298.538,248.501 296.946,249.411 296.659 C 249.857 296.518,251.142 295.547,252.265 294.501 C 253.388 293.456,255.337 291.980,256.596 291.222 C 257.855 290.465,258.975 289.610,259.085 289.322 C 259.195 289.035,259.491 288.797,259.743 288.794 C 259.994 288.790,260.809 288.250,261.554 287.594 C 262.299 286.937,263.081 286.400,263.291 286.400 C 263.717 286.400,264.854 285.568,268.549 282.549 C 269.930 281.421,271.469 280.368,271.969 280.210 C 272.972 279.891,273.214 279.705,276.400 276.795 C 277.610 275.690,279.045 274.670,279.590 274.527 C 280.134 274.385,282.166 272.948,284.105 271.334 C 286.044 269.720,287.820 268.400,288.052 268.400 C 288.566 268.400,290.179 267.189,292.844 264.800 C 293.949 263.810,295.368 262.820,295.998 262.600 C 296.628 262.380,298.326 261.140,299.772 259.845 L 302.400 257.490 302.400 228.173 C 302.400 195.437,302.523 196.771,299.600 197.893 M299.831 258.078 C 297.673 260.153,296.938 260.713,295.223 261.588 C 294.342 262.038,293.031 262.990,292.311 263.705 C 291.590 264.419,290.010 265.624,288.800 266.382 C 286.529 267.805,285.062 268.891,282.491 271.055 C 281.671 271.745,279.920 272.949,278.600 273.730 C 277.280 274.511,275.707 275.683,275.104 276.335 C 274.502 276.986,273.152 278.019,272.104 278.630 C 271.057 279.240,269.030 280.663,267.600 281.791 C 266.170 282.919,263.470 284.882,261.600 286.153 C 254.861 290.733,252.970 292.119,251.170 293.797 C 250.163 294.735,248.903 295.640,248.370 295.808 C 247.836 295.976,246.500 296.863,245.400 297.777 C 244.300 298.692,242.950 299.747,242.400 300.121 C 241.850 300.495,240.230 301.588,238.800 302.549 C 237.370 303.511,235.456 305.020,234.548 305.902 C 233.639 306.785,232.276 307.711,231.519 307.961 C 230.762 308.211,229.436 309.097,228.571 309.931 C 227.707 310.765,225.920 312.148,224.600 313.005 C 223.280 313.862,220.877 315.612,219.259 316.893 C 217.641 318.175,215.751 319.468,215.059 319.767 C 214.367 320.066,213.016 321.054,212.058 321.963 C 211.101 322.872,209.481 324.095,208.458 324.683 C 207.436 325.270,205.610 326.577,204.400 327.587 C 202.414 329.244,201.042 330.209,198.000 332.090 C 197.450 332.430,195.930 333.650,194.623 334.802 C 193.315 335.953,191.515 337.214,190.623 337.603 C 189.730 337.993,188.370 338.981,187.600 339.800 C 186.830 340.619,185.470 341.607,184.579 341.996 C 183.687 342.386,182.422 343.239,181.768 343.894 C 180.215 345.447,175.308 348.800,174.589 348.800 C 173.244 348.800,173.183 347.427,173.292 319.404 L 173.400 291.586 175.384 289.893 C 176.475 288.962,177.807 287.795,178.342 287.300 C 178.878 286.805,179.617 286.400,179.983 286.400 C 180.350 286.400,181.539 285.586,182.625 284.591 C 183.711 283.596,185.095 282.512,185.700 282.181 C 186.305 281.850,186.800 281.424,186.800 281.233 C 186.800 281.043,187.205 280.782,187.700 280.654 C 188.195 280.526,189.123 279.966,189.762 279.410 C 190.401 278.855,191.085 278.400,191.281 278.400 C 191.477 278.400,192.414 277.635,193.363 276.700 C 194.312 275.765,195.752 274.684,196.564 274.297 C 198.112 273.559,198.410 273.345,200.586 271.400 C 202.782 269.437,203.308 269.041,204.729 268.280 C 205.474 267.881,206.289 267.383,206.542 267.173 C 206.794 266.964,207.990 266.032,209.200 265.102 C 210.410 264.172,211.659 263.162,211.976 262.858 C 212.292 262.554,213.057 262.129,213.676 261.914 C 214.294 261.698,214.800 261.359,214.800 261.161 C 214.800 260.962,215.001 260.800,215.246 260.800 C 215.491 260.800,216.706 259.924,217.946 258.854 C 219.186 257.784,220.650 256.775,221.200 256.612 C 221.750 256.449,223.010 255.546,224.000 254.606 C 224.990 253.667,226.790 252.248,228.000 251.454 C 229.210 250.660,230.485 249.738,230.834 249.405 C 231.182 249.072,231.612 248.800,231.789 248.800 C 231.966 248.800,232.941 248.069,233.955 247.175 C 236.404 245.018,236.507 244.945,237.631 244.599 C 238.164 244.435,239.596 243.357,240.813 242.205 C 242.030 241.052,243.425 239.982,243.913 239.828 C 244.401 239.673,244.800 239.378,244.800 239.173 C 244.800 238.968,245.056 238.800,245.368 238.800 C 245.680 238.800,247.096 237.810,248.513 236.600 C 249.931 235.390,251.285 234.400,251.522 234.400 C 251.760 234.400,252.190 234.076,252.477 233.680 C 252.765 233.284,253.547 232.738,254.215 232.467 C 254.883 232.196,256.225 231.247,257.197 230.358 C 258.169 229.469,259.513 228.506,260.182 228.219 C 260.852 227.931,262.570 226.665,264.000 225.405 C 265.430 224.145,267.050 222.911,267.600 222.661 C 268.548 222.231,271.398 220.204,272.598 219.107 C 273.305 218.461,275.254 217.113,277.800 215.510 C 278.900 214.817,280.734 213.384,281.876 212.325 C 283.018 211.266,284.188 210.400,284.476 210.400 C 284.764 210.399,285.478 209.994,286.062 209.500 C 289.104 206.923,291.510 205.138,294.000 203.610 C 295.210 202.868,296.650 201.858,297.200 201.367 C 297.750 200.876,298.830 200.127,299.600 199.702 L 301.000 198.931 301.103 227.844 L 301.205 256.756 299.831 258.078 " stroke="none" fill="#f69ca1" fill-rule="evenodd"></path><path id="path5" d="M242.400 55.884 C 242.070 56.005,241.530 56.330,241.200 56.605 C 240.870 56.880,239.430 57.700,238.000 58.426 C 235.683 59.603,234.129 60.664,231.910 62.583 C 231.531 62.911,230.721 63.302,230.110 63.451 C 229.500 63.600,228.491 64.144,227.869 64.661 C 227.247 65.177,226.584 65.600,226.396 65.600 C 226.207 65.600,224.932 66.500,223.561 67.600 C 222.190 68.700,220.665 69.600,220.171 69.600 C 219.677 69.600,218.312 70.374,217.137 71.321 C 214.760 73.235,212.837 74.495,210.926 75.392 C 209.006 76.292,206.540 77.931,203.800 80.128 C 203.140 80.658,202.150 81.225,201.600 81.390 C 200.749 81.646,197.087 83.854,195.800 84.888 C 193.509 86.729,192.193 87.600,191.701 87.600 C 191.027 87.600,187.200 89.992,187.200 90.412 C 187.200 90.565,186.075 91.247,184.700 91.928 C 181.898 93.316,178.118 95.645,177.185 96.559 C 176.846 96.890,175.091 97.901,173.285 98.806 C 171.478 99.710,170.000 100.588,170.000 100.757 C 170.000 101.162,164.006 105.018,162.767 105.409 C 161.940 105.670,158.609 108.078,158.000 108.855 C 157.890 108.995,157.170 109.407,156.400 109.770 C 153.636 111.072,151.554 112.227,151.279 112.610 C 151.126 112.824,150.325 113.343,149.500 113.763 C 148.675 114.183,148.000 114.664,148.000 114.832 C 148.000 115.000,147.325 115.359,146.500 115.628 C 144.944 116.137,143.395 117.154,141.823 118.700 C 141.320 119.195,140.711 119.600,140.470 119.600 C 140.229 119.600,139.709 119.938,139.316 120.350 C 138.922 120.763,138.150 121.235,137.600 121.398 C 136.240 121.803,133.603 123.446,130.959 125.538 C 129.751 126.493,128.095 127.457,127.281 127.679 C 126.466 127.901,125.001 128.739,124.025 129.541 C 122.030 131.181,120.019 132.491,118.116 133.390 C 117.410 133.724,116.060 134.546,115.116 135.217 C 114.172 135.888,112.565 136.972,111.544 137.625 C 109.527 138.917,108.698 140.917,109.972 141.415 C 111.037 141.832,168.154 141.606,168.577 141.183 C 168.788 140.972,169.278 140.800,169.666 140.800 C 170.054 140.800,170.963 140.284,171.686 139.654 C 172.409 139.024,173.405 138.382,173.900 138.227 C 174.395 138.073,174.800 137.791,174.800 137.601 C 174.800 137.411,175.610 136.852,176.600 136.357 C 177.590 135.863,178.400 135.333,178.400 135.179 C 178.400 135.026,178.954 134.789,179.632 134.654 C 180.310 134.518,181.795 133.615,182.932 132.647 C 184.069 131.678,185.630 130.590,186.400 130.227 C 189.178 128.920,190.657 128.054,191.173 127.433 C 191.462 127.085,191.948 126.800,192.253 126.800 C 192.558 126.800,193.372 126.260,194.063 125.600 C 194.754 124.940,195.534 124.400,195.797 124.400 C 196.061 124.400,196.602 124.040,197.000 123.600 C 197.398 123.160,198.064 122.800,198.480 122.800 C 198.896 122.800,199.686 122.350,200.236 121.800 C 200.786 121.250,201.383 120.800,201.563 120.800 C 201.743 120.800,202.569 120.260,203.400 119.600 C 204.231 118.940,205.154 118.400,205.452 118.400 C 205.749 118.400,206.218 118.040,206.493 117.600 C 206.768 117.160,207.318 116.800,207.716 116.800 C 208.623 116.800,210.800 115.696,210.800 115.236 C 210.800 115.048,211.173 114.796,211.630 114.676 C 212.086 114.557,212.552 114.107,212.664 113.675 C 212.808 113.126,213.345 112.815,214.457 112.637 C 215.486 112.473,216.923 111.701,218.544 110.444 C 219.919 109.377,221.439 108.378,221.922 108.225 C 222.405 108.072,222.800 107.708,222.800 107.418 C 222.800 107.127,223.440 106.769,224.222 106.622 C 225.005 106.475,225.995 106.005,226.422 105.578 C 226.850 105.150,227.445 104.800,227.744 104.800 C 228.043 104.800,228.626 104.350,229.039 103.800 C 229.452 103.250,229.944 102.800,230.133 102.800 C 230.322 102.800,231.042 102.395,231.733 101.900 C 232.424 101.405,233.622 100.679,234.395 100.286 C 237.428 98.745,242.000 95.666,242.000 95.165 C 242.000 94.984,242.631 94.718,243.401 94.573 C 244.669 94.336,246.753 93.025,248.434 91.409 C 248.782 91.074,249.252 90.800,249.478 90.800 C 249.704 90.800,250.525 90.368,251.303 89.840 C 252.081 89.312,253.138 88.746,253.653 88.583 C 254.627 88.274,257.693 86.048,257.944 85.467 C 258.024 85.283,258.834 84.780,259.744 84.348 C 263.184 82.716,264.441 81.960,264.660 81.389 C 264.784 81.065,265.213 80.800,265.612 80.800 C 266.012 80.800,266.847 80.375,267.469 79.856 C 268.091 79.337,269.185 78.613,269.900 78.246 C 270.615 77.879,271.200 77.424,271.200 77.234 C 271.200 77.044,271.790 76.778,272.510 76.643 C 273.267 76.501,274.648 75.638,275.779 74.599 C 276.857 73.609,277.952 72.800,278.213 72.800 C 278.475 72.800,279.298 72.393,280.044 71.896 C 280.790 71.399,281.940 70.753,282.600 70.460 C 283.260 70.167,284.070 69.686,284.400 69.392 C 284.730 69.097,285.460 68.436,286.022 67.924 C 286.585 67.411,287.800 66.651,288.722 66.235 C 289.645 65.819,290.400 65.326,290.400 65.139 C 290.400 64.953,290.735 64.800,291.145 64.800 C 291.555 64.800,292.569 64.260,293.400 63.600 C 294.231 62.940,295.058 62.400,295.239 62.400 C 295.421 62.400,295.891 62.061,296.284 61.647 C 296.678 61.232,297.556 60.774,298.236 60.629 C 300.384 60.170,302.718 57.414,301.809 56.410 C 301.094 55.620,244.482 55.118,242.400 55.884 M299.216 57.675 C 298.767 58.157,298.400 58.685,298.400 58.848 C 298.400 59.012,297.995 59.269,297.500 59.418 C 296.397 59.752,292.723 62.129,292.042 62.950 C 291.768 63.279,290.985 63.672,290.300 63.822 C 289.615 63.972,288.233 64.697,287.228 65.431 C 283.049 68.486,280.785 70.000,280.396 70.000 C 279.853 70.000,277.058 71.805,274.800 73.614 C 273.810 74.407,272.370 75.307,271.600 75.615 C 270.830 75.923,268.606 77.261,266.657 78.587 C 262.367 81.509,262.653 81.337,260.231 82.441 C 259.148 82.934,257.975 83.622,257.626 83.969 C 256.514 85.071,252.965 87.494,252.024 87.792 C 251.036 88.106,249.113 89.300,246.574 91.177 C 245.680 91.838,244.060 92.772,242.974 93.252 C 241.889 93.731,240.190 94.796,239.200 95.618 C 238.210 96.440,235.960 97.865,234.200 98.785 C 232.440 99.706,230.190 101.129,229.200 101.949 C 228.210 102.769,226.410 103.947,225.200 104.566 C 222.201 106.100,219.780 107.596,218.267 108.849 C 216.832 110.037,214.042 111.600,213.355 111.600 C 213.104 111.600,212.665 111.881,212.379 112.225 C 211.712 113.029,207.845 115.600,207.302 115.600 C 207.074 115.600,205.218 116.725,203.177 118.100 C 201.137 119.475,198.323 121.230,196.924 122.000 C 195.525 122.770,193.889 123.811,193.290 124.312 C 191.810 125.551,189.418 127.088,187.874 127.791 C 186.026 128.634,183.948 129.969,181.527 131.869 C 180.357 132.787,178.860 133.666,178.200 133.821 C 177.540 133.977,176.640 134.410,176.200 134.782 C 175.499 135.376,173.098 137.034,169.660 139.298 C 168.151 140.292,113.221 140.390,112.400 139.400 C 112.035 138.960,112.027 138.800,112.369 138.800 C 112.626 138.800,113.268 138.368,113.796 137.840 C 114.714 136.922,115.409 136.498,119.000 134.664 C 119.880 134.214,120.744 133.611,120.920 133.323 C 121.096 133.035,121.439 132.800,121.682 132.800 C 121.925 132.800,122.771 132.305,123.561 131.700 C 126.286 129.613,127.518 128.882,128.776 128.605 C 129.470 128.453,130.253 127.984,130.515 127.564 C 130.778 127.144,131.176 126.800,131.400 126.800 C 131.625 126.800,132.256 126.395,132.804 125.900 C 133.352 125.405,134.475 124.688,135.300 124.306 C 136.125 123.925,136.800 123.450,136.800 123.250 C 136.800 123.050,137.291 122.763,137.891 122.613 C 139.132 122.301,142.800 120.022,142.800 119.562 C 142.800 119.395,143.295 119.001,143.900 118.686 C 148.352 116.371,150.983 114.771,152.417 113.509 C 152.757 113.210,153.657 112.719,154.417 112.417 C 155.178 112.115,156.084 111.628,156.431 111.334 C 156.779 111.040,157.259 110.800,157.499 110.800 C 157.739 110.800,158.985 109.898,160.268 108.797 C 161.550 107.695,163.246 106.616,164.036 106.398 C 164.827 106.181,165.799 105.643,166.198 105.202 C 166.598 104.761,167.138 104.400,167.399 104.400 C 167.660 104.400,168.307 104.031,168.837 103.581 C 171.154 101.612,172.958 100.400,173.575 100.400 C 173.941 100.400,175.311 99.624,176.620 98.675 C 177.929 97.727,179.585 96.608,180.300 96.189 C 181.015 95.770,181.600 95.300,181.600 95.145 C 181.600 94.989,182.254 94.646,183.054 94.382 C 184.686 93.844,186.995 92.454,188.200 91.285 C 188.640 90.858,189.389 90.387,189.864 90.239 C 190.339 90.091,190.946 89.706,191.213 89.385 C 191.480 89.063,192.044 88.800,192.467 88.800 C 192.890 88.800,193.642 88.395,194.137 87.900 C 194.633 87.405,195.479 86.771,196.019 86.491 C 197.221 85.868,199.554 84.272,200.500 83.426 C 200.885 83.082,201.431 82.800,201.713 82.800 C 202.324 82.800,206.421 80.213,206.812 79.580 C 207.085 79.138,209.391 77.815,211.985 76.612 C 212.747 76.259,213.694 75.677,214.088 75.320 C 214.483 74.963,215.142 74.475,215.552 74.236 C 215.963 73.996,217.309 73.129,218.543 72.309 C 219.777 71.489,221.220 70.710,221.749 70.577 C 222.279 70.444,223.216 69.810,223.831 69.168 C 224.446 68.525,225.192 68.000,225.487 68.000 C 225.783 68.000,226.129 67.730,226.255 67.400 C 226.382 67.070,226.723 66.800,227.012 66.800 C 227.302 66.800,228.060 66.362,228.696 65.826 C 229.333 65.290,230.361 64.725,230.981 64.569 C 231.601 64.413,233.090 63.487,234.289 62.510 C 235.488 61.533,237.039 60.538,237.735 60.298 C 238.431 60.058,239.450 59.557,240.000 59.184 C 243.834 56.586,240.765 56.814,271.916 56.807 L 300.031 56.800 299.216 57.675 M106.262 146.331 C 105.323 147.369,105.230 348.541,106.168 349.824 C 107.082 351.075,164.743 351.257,165.988 350.012 C 167.203 348.797,167.283 147.361,166.069 146.262 C 164.880 145.186,107.238 145.253,106.262 146.331 M165.651 146.661 C 166.447 147.621,166.476 348.884,165.680 349.680 C 165.119 350.241,113.195 350.715,108.911 350.197 C 105.773 349.819,106.002 357.865,106.007 248.400 C 106.012 145.534,105.994 146.942,107.358 146.391 C 109.148 145.667,165.041 145.927,165.651 146.661 M302.589 228.000 C 302.589 243.290,302.639 249.545,302.700 241.900 C 302.761 234.255,302.761 221.745,302.700 214.100 C 302.639 206.455,302.589 212.710,302.589 228.000 M260.600 226.235 L 259.400 227.266 260.700 226.406 C 261.415 225.933,262.000 225.468,262.000 225.373 C 262.000 225.073,261.831 225.178,260.600 226.235 M233.381 245.700 L 231.800 247.400 233.500 245.819 C 234.435 244.949,235.200 244.184,235.200 244.119 C 235.200 243.816,234.852 244.119,233.381 245.700 M223.775 252.900 L 222.600 254.200 223.900 253.025 C 224.615 252.379,225.200 251.794,225.200 251.725 C 225.200 251.416,224.870 251.688,223.775 252.900 M171.790 320.400 C 171.790 336.350,171.839 342.875,171.900 334.900 C 171.960 326.925,171.960 313.875,171.900 305.900 C 171.839 297.925,171.790 304.450,171.790 320.400 M178.678 347.813 C 178.060 348.356,177.714 348.800,177.908 348.800 C 178.102 348.800,178.683 348.350,179.200 347.800 C 180.395 346.528,180.131 346.534,178.678 347.813 " stroke="none" fill="#d9e9ac" fill-rule="evenodd"></path></g></svg>