<svg id="svg" version="1.1" xmlns="http://www.w3.org/2000/svg" xmlns:xlink="http://www.w3.org/1999/xlink" width="400" height="285.4625550660793" viewBox="0, 0, 400,285.4625550660793"><g id="svgg"><path id="path0" d="M0.000 142.755 L 0.000 285.510 200.000 285.510 L 400.000 285.510 400.000 142.755 L 400.000 0.000 200.000 0.000 L 0.000 0.000 0.000 142.755 M119.914 28.266 C 119.914 28.423,120.227 28.551,120.610 28.551 C 122.043 28.551,125.625 31.119,125.625 32.146 C 125.625 32.367,125.739 32.548,125.879 32.548 C 126.019 32.548,126.222 32.900,126.330 33.330 C 126.438 33.761,126.660 34.195,126.823 34.296 C 126.986 34.397,127.187 35.659,127.269 37.100 L 127.419 39.720 128.806 41.100 C 129.569 41.858,130.193 42.590,130.193 42.725 C 130.193 42.861,136.206 48.984,143.556 56.332 C 156.499 69.274,156.943 69.684,157.688 69.400 C 158.112 69.239,158.458 68.982,158.458 68.828 C 158.458 68.674,158.940 68.471,159.529 68.377 C 160.118 68.283,160.823 68.084,161.095 67.936 C 161.752 67.579,163.802 67.590,164.026 67.951 C 164.123 68.108,164.563 68.237,165.003 68.237 C 165.444 68.237,166.131 68.494,166.530 68.808 C 166.930 69.122,167.348 69.379,167.459 69.379 C 167.906 69.379,169.854 71.608,170.034 72.325 C 170.140 72.746,170.335 73.091,170.468 73.091 C 170.601 73.091,170.794 73.542,170.897 74.093 C 171.001 74.644,171.199 75.166,171.339 75.252 C 171.688 75.468,171.659 79.582,171.306 79.800 C 171.149 79.897,171.021 80.169,171.021 80.404 C 171.021 84.368,164.775 88.349,160.435 87.150 L 159.413 86.868 145.660 100.631 C 138.095 108.201,131.906 114.494,131.906 114.617 C 131.906 114.739,130.621 116.139,129.051 117.728 C 126.627 120.181,126.196 120.756,126.196 121.534 C 126.196 122.038,126.082 122.521,125.942 122.607 C 125.803 122.693,125.605 123.214,125.501 123.766 C 125.398 124.317,125.204 124.768,125.072 124.768 C 124.939 124.768,124.746 125.101,124.644 125.507 C 124.254 127.063,121.129 129.622,119.620 129.622 C 119.311 129.622,119.058 129.750,119.058 129.907 C 119.058 130.068,118.249 130.193,117.202 130.193 C 116.155 130.193,115.346 130.068,115.346 129.907 C 115.346 129.750,115.093 129.622,114.784 129.622 C 113.275 129.622,110.150 127.063,109.760 125.507 C 109.658 125.101,109.465 124.768,109.332 124.768 C 109.200 124.768,109.006 124.318,108.903 123.769 C 108.742 122.906,108.605 122.769,107.908 122.769 C 107.464 122.769,107.030 122.656,106.944 122.517 C 106.859 122.379,106.082 122.177,105.219 122.069 C 104.356 121.961,103.575 121.753,103.485 121.607 C 103.395 121.461,102.943 121.342,102.481 121.342 C 102.020 121.342,101.642 121.230,101.642 121.093 C 101.642 120.957,100.742 120.756,99.643 120.648 C 98.544 120.539,97.645 120.343,97.645 120.211 C 97.645 120.078,96.874 119.881,95.931 119.772 C 94.989 119.662,94.218 119.470,94.218 119.343 C 94.218 119.217,93.447 119.024,92.505 118.915 C 91.562 118.806,90.729 118.615,90.653 118.492 C 90.577 118.369,89.808 118.180,88.945 118.072 C 88.081 117.964,87.311 117.771,87.232 117.644 C 87.153 117.516,86.253 117.323,85.232 117.213 C 84.211 117.104,83.302 116.896,83.212 116.751 C 83.123 116.607,82.672 116.488,82.210 116.488 C 81.748 116.488,81.370 116.360,81.370 116.203 C 81.370 115.682,80.623 115.907,79.943 116.631 C 79.574 117.024,79.102 117.345,78.894 117.345 C 78.686 117.345,78.515 117.467,78.515 117.617 C 78.515 117.767,78.064 117.975,77.513 118.078 C 76.962 118.181,76.440 118.380,76.354 118.519 C 76.138 118.868,72.880 118.840,72.662 118.487 C 72.565 118.330,72.288 118.201,72.046 118.201 C 70.758 118.201,67.380 115.593,67.380 114.598 C 67.380 114.381,67.262 114.204,67.118 114.204 C 66.973 114.204,66.770 113.819,66.667 113.348 C 66.563 112.877,66.360 112.491,66.216 112.491 C 66.071 112.491,65.953 112.170,65.953 111.777 C 65.953 111.385,65.824 111.064,65.667 111.064 C 65.307 111.064,65.287 107.238,65.643 106.563 C 66.166 105.572,66.809 103.975,66.809 103.668 C 66.809 103.496,66.938 103.355,67.095 103.355 C 67.252 103.355,67.380 103.200,67.380 103.011 C 67.380 102.614,69.084 100.785,69.454 100.785 C 69.591 100.785,70.115 100.470,70.619 100.086 C 71.287 99.576,72.071 99.332,73.504 99.185 C 75.387 98.992,76.517 98.463,76.517 97.774 C 76.517 97.600,76.838 97.157,77.231 96.788 C 77.623 96.419,77.944 95.954,77.944 95.753 C 77.944 95.553,78.105 95.286,78.301 95.161 C 78.702 94.904,79.236 94.108,79.651 93.148 C 79.804 92.794,80.045 92.505,80.188 92.505 C 80.331 92.505,80.523 92.281,80.615 92.006 C 80.842 91.330,81.395 90.490,82.084 89.777 C 82.761 89.075,83.267 88.319,83.648 87.438 C 83.801 87.084,84.043 86.795,84.185 86.795 C 84.328 86.795,84.522 86.570,84.617 86.296 C 84.711 86.021,85.042 85.383,85.352 84.878 C 85.975 83.863,85.831 83.307,84.590 81.931 C 83.067 80.242,81.941 78.860,81.941 78.676 C 81.941 78.567,81.493 78.004,80.945 77.426 C 80.396 76.847,79.947 76.296,79.945 76.202 C 79.929 75.037,78.395 74.418,75.475 74.397 C 73.621 74.384,72.422 74.255,72.295 74.057 C 72.183 73.882,71.770 73.643,71.378 73.527 C 70.537 73.277,68.237 71.137,68.237 70.604 C 68.237 70.402,68.108 70.236,67.951 70.236 C 67.794 70.236,67.665 70.075,67.664 69.879 C 67.663 69.682,67.441 69.136,67.169 68.665 C 66.567 67.619,66.430 61.510,67.001 61.157 C 67.185 61.044,67.424 60.599,67.532 60.168 C 67.640 59.738,67.842 59.386,67.982 59.386 C 68.122 59.386,68.237 59.232,68.237 59.043 C 68.237 58.575,69.972 56.817,70.434 56.817 C 70.639 56.817,70.807 56.697,70.807 56.552 C 70.807 56.180,72.476 55.389,73.260 55.389 C 73.620 55.389,73.993 55.261,74.090 55.103 C 74.187 54.946,74.765 54.818,75.375 54.818 C 75.984 54.818,76.562 54.946,76.660 55.103 C 76.757 55.261,77.214 55.389,77.676 55.389 C 78.137 55.389,78.515 55.517,78.515 55.675 C 78.515 55.832,78.699 55.960,78.923 55.960 C 79.148 55.960,79.547 56.176,79.811 56.440 C 80.260 56.889,80.308 56.889,80.559 56.440 C 80.707 56.176,80.998 55.960,81.207 55.960 C 81.415 55.960,81.751 55.761,81.953 55.518 C 82.155 55.274,83.006 54.740,83.844 54.329 C 84.682 53.919,85.368 53.486,85.368 53.367 C 85.368 53.248,85.753 53.066,86.224 52.962 C 86.695 52.859,87.081 52.656,87.081 52.511 C 87.081 52.367,87.264 52.248,87.489 52.248 C 87.713 52.248,88.072 52.073,88.287 51.858 C 88.502 51.643,88.993 51.368,89.378 51.246 C 89.763 51.124,90.236 50.801,90.429 50.527 C 90.621 50.253,91.134 49.940,91.568 49.832 C 92.002 49.723,92.422 49.547,92.502 49.442 C 92.732 49.140,93.665 48.595,95.289 47.814 C 96.113 47.417,96.788 46.978,96.788 46.838 C 96.788 46.698,97.173 46.499,97.645 46.395 C 98.116 46.292,98.501 46.100,98.501 45.970 C 98.501 45.839,99.072 45.456,99.770 45.118 C 100.468 44.781,101.345 44.263,101.720 43.969 C 102.094 43.674,102.744 43.347,103.163 43.242 C 103.583 43.136,103.926 42.951,103.926 42.829 C 103.926 42.707,104.151 42.525,104.425 42.425 C 104.879 42.259,105.720 41.768,107.665 40.536 C 108.042 40.297,108.608 39.962,108.922 39.792 C 109.400 39.534,109.525 39.073,109.687 36.973 C 109.793 35.593,110.008 34.384,110.164 34.288 C 110.320 34.192,110.536 33.761,110.644 33.330 C 110.752 32.900,110.954 32.548,111.094 32.548 C 111.234 32.548,111.349 32.372,111.349 32.156 C 111.349 31.830,112.871 30.312,114.438 29.074 C 114.645 28.911,115.320 28.709,115.937 28.626 C 116.554 28.544,117.059 28.364,117.059 28.228 C 117.059 28.092,117.702 27.980,118.487 27.980 C 119.272 27.980,119.914 28.108,119.914 28.266 M117.222 29.946 C 117.136 30.085,116.614 30.284,116.063 30.387 C 115.512 30.491,115.061 30.668,115.061 30.780 C 115.061 30.893,114.782 31.112,114.442 31.267 C 114.101 31.422,113.684 31.798,113.514 32.102 C 113.344 32.405,112.904 32.945,112.537 33.300 C 112.143 33.680,111.806 34.419,111.715 35.102 C 111.629 35.739,111.448 36.260,111.311 36.260 C 110.871 36.260,111.039 38.453,111.509 38.843 C 111.832 39.112,111.906 39.496,111.779 40.247 C 111.632 41.118,111.743 41.456,112.476 42.379 C 112.955 42.982,113.348 43.587,113.348 43.722 C 113.348 43.858,113.508 43.974,113.704 43.980 C 113.901 43.987,114.506 44.372,115.050 44.837 C 115.594 45.301,116.332 45.682,116.692 45.682 C 117.051 45.682,117.345 45.810,117.345 45.967 C 117.345 46.124,117.859 46.253,118.487 46.253 C 119.115 46.253,119.629 46.124,119.629 45.967 C 119.629 45.810,119.859 45.682,120.139 45.682 C 121.317 45.682,124.197 43.731,124.197 42.934 C 124.197 42.733,124.422 42.443,124.697 42.289 C 125.099 42.063,125.184 41.672,125.133 40.276 C 125.082 38.912,125.158 38.544,125.489 38.544 C 125.790 38.544,125.910 38.217,125.910 37.402 C 125.910 36.774,125.782 36.260,125.625 36.260 C 125.468 36.260,125.337 35.906,125.335 35.475 C 125.333 35.043,125.145 34.368,124.918 33.976 C 124.691 33.583,124.413 33.079,124.301 32.856 C 123.785 31.824,121.457 30.264,120.435 30.264 C 120.167 30.264,119.869 30.136,119.772 29.979 C 119.553 29.626,117.437 29.599,117.222 29.946 M108.779 41.976 C 108.230 42.278,107.555 42.608,107.281 42.709 C 107.006 42.810,106.781 42.996,106.781 43.123 C 106.781 43.249,106.395 43.437,105.924 43.540 C 105.453 43.644,105.068 43.844,105.068 43.986 C 105.068 44.127,104.747 44.324,104.354 44.422 C 103.961 44.521,103.639 44.684,103.637 44.785 C 103.635 44.885,103.121 45.213,102.495 45.513 C 101.869 45.814,101.356 46.157,101.356 46.276 C 101.356 46.395,100.971 46.577,100.500 46.681 C 100.029 46.784,99.643 46.984,99.643 47.124 C 99.643 47.263,98.969 47.703,98.144 48.099 C 96.629 48.828,95.622 49.405,95.360 49.694 C 95.282 49.780,94.768 50.080,94.218 50.360 C 93.669 50.639,92.705 51.179,92.077 51.559 C 91.449 51.939,90.710 52.329,90.435 52.425 C 90.161 52.522,89.936 52.704,89.936 52.830 C 89.936 52.956,89.550 53.144,89.079 53.248 C 88.608 53.351,88.223 53.551,88.223 53.691 C 88.223 53.832,87.612 54.221,86.867 54.556 C 86.121 54.891,85.253 55.400,84.939 55.686 C 84.625 55.973,84.047 56.344,83.655 56.511 C 83.262 56.678,82.684 56.976,82.370 57.173 C 82.056 57.369,81.746 57.562,81.682 57.600 C 81.617 57.638,81.755 57.895,81.989 58.171 C 82.805 59.136,83.971 61.841,84.170 63.232 C 84.360 64.563,84.444 64.672,85.797 65.357 C 86.582 65.754,87.288 66.160,87.366 66.260 C 87.445 66.360,87.991 66.530,88.580 66.638 C 89.168 66.747,89.650 66.948,89.650 67.085 C 89.650 67.223,90.036 67.420,90.507 67.523 C 90.978 67.627,91.363 67.819,91.363 67.951 C 91.363 68.084,91.749 68.276,92.220 68.380 C 92.691 68.483,93.076 68.686,93.076 68.831 C 93.076 68.975,93.373 69.094,93.736 69.094 C 94.098 69.094,94.644 69.282,94.949 69.513 C 95.673 70.060,95.831 70.051,96.033 69.450 C 96.271 68.740,96.870 67.848,97.288 67.580 C 97.484 67.455,97.645 67.188,97.645 66.988 C 97.645 66.787,97.966 66.322,98.358 65.953 C 98.751 65.584,99.072 65.118,99.072 64.918 C 99.072 64.718,99.233 64.451,99.429 64.325 C 99.830 64.069,100.364 63.273,100.779 62.313 C 100.932 61.959,101.173 61.670,101.316 61.670 C 101.458 61.670,101.651 61.445,101.743 61.171 C 101.970 60.495,102.523 59.655,103.212 58.942 C 103.889 58.240,104.395 57.484,104.776 56.602 C 104.929 56.249,105.170 55.960,105.313 55.960 C 105.456 55.960,105.650 55.735,105.745 55.460 C 105.840 55.186,106.175 54.575,106.489 54.104 C 106.803 53.633,107.148 53.055,107.256 52.819 C 107.363 52.584,107.622 52.288,107.830 52.163 C 108.038 52.037,108.208 51.771,108.208 51.570 C 108.208 51.370,108.530 50.904,108.922 50.535 C 109.315 50.167,109.636 49.701,109.636 49.500 C 109.636 49.300,109.806 49.033,110.014 48.908 C 110.223 48.782,110.479 48.487,110.584 48.251 C 110.869 47.610,111.451 46.731,111.809 46.402 C 112.422 45.837,112.484 45.104,111.963 44.583 C 111.680 44.299,111.157 43.467,110.802 42.733 C 110.068 41.218,110.121 41.238,108.779 41.976 M126.073 42.923 C 125.365 44.448,123.483 46.440,122.522 46.682 C 122.112 46.785,121.683 47.019,121.569 47.203 C 121.285 47.664,115.689 47.664,115.404 47.203 C 114.907 46.398,113.692 46.452,113.255 47.298 C 113.024 47.745,112.565 48.354,112.235 48.653 C 111.905 48.952,111.635 49.369,111.635 49.580 C 111.635 49.792,111.503 49.964,111.342 49.964 C 111.181 49.964,110.924 50.253,110.772 50.607 C 110.486 51.268,109.889 52.281,109.636 52.534 C 109.324 52.846,108.208 54.520,108.208 54.676 C 108.208 54.856,108.094 55.009,106.791 56.569 C 106.314 57.139,105.924 57.749,105.924 57.925 C 105.924 58.100,105.798 58.244,105.644 58.244 C 105.490 58.244,105.286 58.556,105.190 58.937 C 105.095 59.318,104.835 59.700,104.614 59.785 C 104.392 59.870,104.211 60.059,104.211 60.205 C 104.211 60.351,103.693 61.222,103.058 62.141 C 102.424 63.060,101.689 64.133,101.423 64.525 C 101.158 64.918,100.830 65.318,100.695 65.415 C 100.456 65.585,99.881 66.501,99.461 67.380 C 99.349 67.616,99.183 67.873,99.093 67.951 C 98.721 68.276,97.645 69.947,97.645 70.200 C 97.645 70.350,97.484 70.538,97.288 70.617 C 97.074 70.704,97.132 70.771,97.430 70.784 C 97.705 70.796,97.930 70.934,97.930 71.089 C 97.930 71.244,98.444 71.453,99.072 71.553 C 99.700 71.654,100.214 71.838,100.214 71.962 C 100.214 72.087,100.600 72.273,101.071 72.377 C 101.542 72.480,101.927 72.673,101.927 72.805 C 101.927 72.937,102.313 73.130,102.784 73.233 C 103.255 73.337,103.640 73.540,103.640 73.684 C 103.640 73.829,103.887 73.947,104.189 73.947 C 104.490 73.947,105.628 74.400,106.717 74.953 C 108.759 75.991,109.636 76.025,109.636 75.067 C 109.636 73.746,112.326 69.950,113.263 69.950 C 113.466 69.950,113.633 69.828,113.633 69.678 C 113.633 68.493,119.331 67.895,121.359 68.867 C 123.719 69.999,126.481 73.366,126.481 75.113 C 126.481 75.414,126.610 75.660,126.767 75.660 C 126.930 75.660,127.052 76.517,127.052 77.659 L 127.052 79.657 133.888 79.657 C 138.136 79.657,140.790 79.549,140.899 79.372 C 141.008 79.196,143.472 79.086,147.340 79.086 L 153.605 79.086 153.605 77.247 C 153.605 76.236,153.718 75.338,153.858 75.252 C 153.997 75.166,154.195 74.644,154.299 74.093 C 154.402 73.542,154.599 73.091,154.737 73.091 C 154.874 73.091,155.071 72.705,155.175 72.234 C 155.278 71.763,155.497 71.378,155.660 71.378 C 155.824 71.378,155.123 70.560,154.104 69.560 C 153.084 68.560,152.201 67.594,152.140 67.413 C 152.052 67.147,129.410 44.317,127.238 42.303 L 126.624 41.734 126.073 42.923 M74.110 56.784 C 74.024 56.923,73.502 57.122,72.951 57.225 C 72.400 57.329,71.949 57.522,71.949 57.655 C 71.949 57.788,71.636 57.975,71.254 58.071 C 70.872 58.167,70.471 58.522,70.364 58.860 C 70.257 59.199,69.851 59.770,69.463 60.129 C 69.024 60.536,68.699 61.220,68.603 61.940 C 68.517 62.577,68.336 63.098,68.199 63.098 C 68.063 63.098,67.951 63.869,67.951 64.811 C 67.951 65.753,68.063 66.524,68.199 66.524 C 68.336 66.524,68.519 67.060,68.607 67.714 C 68.695 68.369,68.969 69.018,69.216 69.156 C 69.463 69.294,69.665 69.570,69.665 69.768 C 69.665 70.218,71.146 71.663,71.607 71.663 C 71.795 71.663,71.949 71.786,71.949 71.936 C 71.949 72.086,72.400 72.293,72.951 72.396 C 73.502 72.500,74.024 72.698,74.110 72.838 C 74.312 73.165,76.517 73.169,76.517 72.842 C 76.517 72.705,77.031 72.510,77.659 72.410 C 78.287 72.310,78.801 72.100,78.801 71.945 C 78.801 71.790,78.971 71.663,79.179 71.663 C 79.631 71.663,80.799 70.477,80.799 70.019 C 80.799 69.842,81.067 69.510,81.394 69.281 C 81.768 69.019,82.047 68.428,82.146 67.687 C 82.233 67.040,82.415 66.441,82.551 66.357 C 82.874 66.158,82.873 63.098,82.550 63.098 C 82.414 63.098,82.236 62.603,82.155 61.997 C 82.073 61.392,81.808 60.653,81.566 60.356 C 81.323 60.058,80.783 59.397,80.366 58.887 C 79.948 58.376,79.425 57.959,79.204 57.959 C 78.982 57.959,78.801 57.836,78.801 57.686 C 78.801 57.536,78.350 57.329,77.798 57.225 C 77.247 57.122,76.726 56.923,76.640 56.784 C 76.553 56.645,75.984 56.531,75.375 56.531 C 74.765 56.531,74.196 56.645,74.110 56.784 M84.054 67.286 C 83.515 68.938,82.127 71.362,81.300 72.098 C 79.615 73.597,79.544 73.352,82.686 76.848 C 83.062 77.266,83.369 77.724,83.369 77.865 C 83.369 78.007,83.754 78.492,84.226 78.944 C 84.697 79.395,85.082 79.875,85.082 80.010 C 85.082 80.146,85.510 80.697,86.033 81.236 L 86.985 82.216 87.746 81.421 C 88.165 80.983,88.508 80.478,88.508 80.298 C 88.508 80.118,88.669 79.869,88.865 79.743 C 89.266 79.487,89.800 78.691,90.215 77.730 C 90.368 77.377,90.609 77.088,90.752 77.088 C 90.895 77.088,91.087 76.863,91.179 76.588 C 91.420 75.871,91.980 75.046,92.719 74.320 C 93.073 73.973,93.362 73.597,93.362 73.484 C 93.362 73.371,93.539 73.076,93.756 72.828 C 94.420 72.069,94.611 71.092,94.095 71.092 C 93.849 71.092,93.647 70.974,93.647 70.829 C 93.647 70.685,93.262 70.482,92.791 70.378 C 92.320 70.275,91.934 70.072,91.934 69.927 C 91.934 69.783,91.683 69.665,91.375 69.665 C 91.067 69.665,89.707 69.094,88.352 68.397 C 85.289 66.821,84.291 66.563,84.054 67.286 M160.885 69.615 C 158.872 70.363,157.316 71.459,157.316 72.127 C 157.316 72.327,157.153 72.594,156.952 72.720 C 155.654 73.534,154.672 78.560,155.698 79.134 C 156.030 79.320,156.156 79.743,156.123 80.567 C 156.092 81.369,156.227 81.845,156.554 82.084 C 156.816 82.276,157.031 82.560,157.031 82.716 C 157.031 83.063,158.342 84.510,158.659 84.513 C 158.784 84.514,159.272 84.728,159.743 84.990 C 162.160 86.330,168.166 84.628,168.166 82.602 C 168.166 82.396,168.288 82.227,168.438 82.227 C 169.451 82.227,170.373 74.955,169.444 74.290 C 169.122 74.059,168.564 73.204,168.195 72.377 C 167.864 71.634,166.694 70.635,165.842 70.369 C 165.471 70.253,165.089 70.037,164.994 69.888 C 164.771 69.543,161.639 69.334,160.885 69.615 M116.936 69.918 C 116.850 70.057,116.329 70.255,115.778 70.359 C 115.226 70.462,114.775 70.670,114.775 70.820 C 114.775 70.969,114.589 71.092,114.361 71.092 C 114.134 71.092,113.589 71.574,113.150 72.163 C 112.711 72.752,112.190 73.336,111.993 73.462 C 111.796 73.587,111.635 73.876,111.635 74.104 C 111.635 74.332,111.523 74.518,111.387 74.518 C 110.876 74.518,110.772 76.923,111.266 77.297 C 111.695 77.622,111.694 77.691,111.254 78.178 C 110.769 78.713,110.853 81.370,111.355 81.370 C 111.472 81.370,111.649 81.595,111.749 81.870 C 112.296 83.385,113.150 84.283,114.814 85.092 C 115.499 85.426,116.283 85.817,116.556 85.962 C 117.202 86.304,118.930 86.298,119.561 85.952 C 119.834 85.803,120.571 85.457,121.199 85.183 C 122.498 84.617,123.614 83.682,123.621 83.155 C 123.624 82.959,123.746 82.798,123.892 82.798 C 124.039 82.798,124.249 82.509,124.359 82.156 C 124.469 81.802,124.703 81.422,124.878 81.309 C 125.284 81.050,125.314 74.867,124.911 74.579 C 124.615 74.368,124.125 73.647,123.607 72.662 C 123.187 71.863,121.271 70.550,120.216 70.339 C 119.729 70.241,119.262 70.050,119.178 69.913 C 118.976 69.587,117.138 69.591,116.936 69.918 M95.833 72.471 C 95.573 72.758,95.360 73.143,95.360 73.327 C 95.360 73.511,95.253 73.662,95.121 73.662 C 94.989 73.662,94.731 73.951,94.547 74.304 C 94.363 74.657,93.958 75.332,93.648 75.803 C 93.337 76.274,92.991 76.852,92.880 77.088 C 92.768 77.323,92.573 77.645,92.445 77.802 C 92.317 77.959,91.831 78.601,91.363 79.229 C 90.896 79.857,90.351 80.559,90.153 80.789 C 89.772 81.232,89.236 82.088,88.897 82.798 C 88.785 83.034,88.573 83.306,88.428 83.404 C 88.147 83.593,88.787 84.739,89.845 85.939 C 90.191 86.331,90.995 87.245,91.632 87.969 C 92.269 88.693,92.791 89.421,92.791 89.585 C 92.791 89.750,93.176 90.209,93.647 90.606 C 94.118 91.002,94.508 91.431,94.513 91.559 C 94.545 92.386,95.973 93.413,96.467 92.965 C 96.747 92.712,97.126 92.505,97.310 92.505 C 97.494 92.505,97.645 92.392,97.645 92.253 C 97.645 92.114,97.869 91.920,98.144 91.820 C 98.419 91.721,99.415 91.192,100.357 90.644 C 101.299 90.097,102.295 89.570,102.570 89.474 C 102.844 89.377,103.069 89.195,103.069 89.069 C 103.069 88.942,103.455 88.754,103.926 88.651 C 104.397 88.547,104.782 88.358,104.782 88.229 C 104.782 88.100,105.328 87.711,105.996 87.364 C 106.663 87.017,107.273 86.642,107.352 86.530 C 107.430 86.419,108.073 86.035,108.779 85.678 C 110.895 84.609,111.510 84.234,111.158 84.230 C 110.974 84.227,110.739 83.840,110.635 83.369 C 110.532 82.898,110.330 82.512,110.188 82.512 C 110.045 82.512,109.846 81.999,109.746 81.370 C 109.645 80.742,109.451 80.228,109.314 80.228 C 109.177 80.228,109.065 79.678,109.065 79.006 C 109.065 77.623,109.213 77.723,104.711 76.063 C 104.436 75.962,104.211 75.776,104.211 75.650 C 104.211 75.523,103.826 75.335,103.355 75.232 C 102.884 75.129,102.498 74.926,102.498 74.781 C 102.498 74.636,102.247 74.518,101.939 74.518 C 101.631 74.518,100.256 73.940,98.883 73.233 C 95.946 71.722,96.406 71.837,95.833 72.471 M141.470 81.085 C 141.360 81.263,138.508 81.370,133.861 81.370 C 126.668 81.370,126.423 81.389,126.278 81.941 C 126.196 82.256,126.029 82.512,125.908 82.512 C 125.786 82.512,125.603 82.844,125.502 83.249 C 125.125 84.749,121.937 87.366,120.486 87.366 C 120.172 87.366,119.914 87.495,119.914 87.652 C 119.914 87.810,119.159 87.937,118.218 87.937 C 117.285 87.937,116.443 87.809,116.345 87.652 C 116.248 87.495,115.919 87.366,115.614 87.366 C 114.939 87.366,113.325 86.528,112.596 85.799 C 112.126 85.329,112.052 85.320,111.974 85.726 C 111.925 85.979,111.509 86.269,111.048 86.370 C 110.587 86.471,110.113 86.706,109.995 86.892 C 109.876 87.077,109.297 87.482,108.708 87.791 C 108.119 88.100,107.637 88.442,107.637 88.550 C 107.637 88.659,107.252 88.833,106.781 88.936 C 106.310 89.040,105.924 89.229,105.924 89.356 C 105.924 89.484,105.603 89.669,105.211 89.767 C 104.818 89.866,104.497 90.062,104.497 90.204 C 104.497 90.346,104.111 90.546,103.640 90.650 C 103.169 90.753,102.784 90.941,102.784 91.067 C 102.784 91.193,102.559 91.372,102.284 91.464 C 101.798 91.628,100.788 92.217,100.500 92.505 C 100.245 92.760,99.243 93.345,98.006 93.960 L 96.798 94.562 97.863 95.889 C 98.450 96.619,99.090 97.319,99.286 97.445 C 99.483 97.570,99.643 97.835,99.643 98.034 C 99.643 98.232,100.029 98.764,100.500 99.215 C 100.971 99.666,101.356 100.134,101.356 100.254 C 101.356 100.374,101.806 100.909,102.355 101.443 C 102.905 101.976,103.355 102.513,103.355 102.635 C 103.355 102.841,104.343 104.068,106.071 106.007 C 106.461 106.446,106.781 106.903,106.781 107.025 C 106.781 107.146,107.166 107.614,107.637 108.066 C 108.108 108.517,108.494 108.986,108.494 109.109 C 108.494 109.231,108.847 109.716,109.279 110.187 C 109.711 110.659,110.353 111.422,110.706 111.884 C 111.314 112.678,112.765 112.663,112.774 111.862 C 112.792 110.263,120.407 110.251,121.427 111.848 C 121.553 112.045,121.816 112.206,122.012 112.206 C 122.973 112.206,125.625 116.071,125.625 117.472 C 125.625 117.716,125.738 117.916,125.876 117.916 C 126.153 117.916,155.889 88.269,155.889 87.993 C 155.889 87.899,156.300 87.397,156.803 86.878 L 157.717 85.935 156.546 84.723 C 155.902 84.057,155.102 82.901,154.768 82.156 L 154.161 80.799 147.904 80.799 C 144.041 80.799,141.579 80.909,141.470 81.085 M86.581 86.208 C 86.228 86.503,85.939 86.864,85.939 87.011 C 85.939 87.158,85.682 87.510,85.368 87.794 C 85.054 88.079,84.797 88.484,84.797 88.695 C 84.797 88.906,84.689 89.079,84.557 89.079 C 84.425 89.079,84.167 89.368,83.983 89.722 C 83.799 90.075,83.425 90.702,83.152 91.114 C 82.879 91.527,82.403 92.266,82.094 92.756 C 81.785 93.246,81.432 93.647,81.309 93.647 C 81.186 93.647,81.085 93.844,81.085 94.085 C 81.085 94.325,80.892 94.596,80.657 94.686 C 80.421 94.777,80.228 95.020,80.228 95.228 C 80.228 95.435,80.004 95.829,79.731 96.103 C 79.171 96.662,78.614 97.540,78.344 98.287 C 78.245 98.562,78.050 98.787,77.911 98.787 C 77.441 98.787,77.655 99.861,78.158 100.030 C 78.770 100.235,79.583 100.769,80.254 101.406 C 80.750 101.879,81.941 101.826,81.941 101.331 C 81.941 101.197,82.616 100.757,83.440 100.353 C 85.103 99.539,86.009 99.019,86.224 98.754 C 86.303 98.657,86.682 98.480,87.067 98.359 C 87.453 98.239,87.944 97.964,88.158 97.750 C 88.373 97.535,88.733 97.359,88.957 97.359 C 89.181 97.359,89.365 97.231,89.365 97.074 C 89.365 96.916,89.502 96.788,89.669 96.788 C 89.837 96.788,90.383 96.477,90.883 96.096 C 91.383 95.716,92.136 95.319,92.556 95.214 C 92.977 95.109,93.390 94.842,93.475 94.621 C 93.560 94.400,93.851 94.218,94.123 94.218 C 94.505 94.218,94.411 94.007,93.703 93.277 C 93.202 92.759,92.791 92.200,92.791 92.035 C 92.791 91.869,92.405 91.439,91.934 91.078 C 91.463 90.717,91.078 90.274,91.078 90.094 C 91.078 89.914,90.564 89.264,89.936 88.651 C 89.308 88.038,88.791 87.401,88.789 87.237 C 88.784 86.961,87.558 85.641,87.326 85.663 C 87.270 85.668,86.934 85.913,86.581 86.208 M94.504 95.864 C 94.504 95.984,94.256 96.208,93.954 96.363 C 91.747 97.494,90.792 98.059,90.792 98.235 C 90.792 98.347,90.440 98.528,90.010 98.636 C 89.580 98.743,89.162 98.918,89.082 99.023 C 88.872 99.299,88.007 99.801,86.296 100.639 C 85.471 101.043,84.797 101.474,84.797 101.597 C 84.797 101.720,84.344 101.998,83.791 102.215 C 82.098 102.879,81.887 103.307,82.594 104.640 C 83.566 106.472,83.495 111.285,82.469 113.117 C 81.638 114.601,81.676 114.775,82.829 114.775 C 83.264 114.775,83.691 114.889,83.777 115.027 C 83.862 115.166,84.639 115.368,85.502 115.476 C 86.365 115.583,87.136 115.776,87.215 115.904 C 87.294 116.032,88.065 116.224,88.928 116.332 C 89.791 116.440,90.572 116.648,90.662 116.794 C 90.752 116.940,91.196 117.059,91.649 117.059 C 92.101 117.059,92.542 117.173,92.627 117.311 C 92.713 117.450,93.618 117.652,94.640 117.762 C 95.661 117.871,96.560 118.064,96.638 118.190 C 96.717 118.317,97.487 118.508,98.350 118.616 C 99.213 118.724,99.986 118.919,100.066 119.050 C 100.147 119.180,100.984 119.377,101.927 119.486 C 102.869 119.595,103.640 119.788,103.640 119.914 C 103.640 120.041,104.411 120.233,105.354 120.343 C 106.296 120.452,107.139 120.657,107.226 120.799 C 107.732 121.617,108.208 120.981,108.208 119.486 C 108.208 118.622,108.337 117.916,108.494 117.916 C 108.651 117.916,108.779 117.715,108.779 117.469 C 108.779 117.224,109.107 116.306,109.508 115.430 L 110.236 113.838 109.508 113.077 C 109.107 112.659,108.779 112.224,108.779 112.111 C 108.779 111.997,108.405 111.491,107.946 110.984 C 105.965 108.796,105.068 107.694,105.068 107.447 C 105.068 107.301,104.688 106.867,104.223 106.482 C 103.759 106.097,103.373 105.645,103.367 105.478 C 103.360 105.311,102.969 104.805,102.498 104.354 C 102.027 103.903,101.642 103.389,101.642 103.212 C 101.642 103.035,101.256 102.521,100.785 102.070 C 100.314 101.619,99.923 101.113,99.917 100.946 C 99.910 100.779,99.524 100.327,99.060 99.942 C 98.596 99.557,98.216 99.121,98.216 98.975 C 98.216 98.828,97.702 98.150,97.074 97.469 C 96.445 96.787,95.931 96.098,95.931 95.938 C 95.931 95.777,95.610 95.646,95.218 95.646 C 94.825 95.646,94.504 95.744,94.504 95.864 M73.091 100.774 C 72.855 100.907,72.034 101.317,71.265 101.687 C 70.497 102.056,69.726 102.614,69.552 102.926 C 69.378 103.238,68.934 103.789,68.565 104.151 C 68.175 104.533,67.830 105.284,67.741 105.944 C 67.657 106.569,67.478 107.149,67.342 107.233 C 66.998 107.446,67.031 110.419,67.380 110.635 C 67.537 110.732,67.668 111.093,67.670 111.437 C 67.672 111.781,67.860 112.384,68.087 112.777 C 68.314 113.169,68.592 113.673,68.704 113.897 C 69.220 114.928,71.548 116.488,72.570 116.488 C 72.838 116.488,73.136 116.617,73.233 116.774 C 73.452 117.127,75.568 117.154,75.783 116.806 C 75.869 116.667,76.391 116.468,76.942 116.365 C 77.493 116.261,77.944 116.054,77.944 115.904 C 77.944 115.754,78.115 115.632,78.323 115.632 C 78.782 115.632,79.943 114.442,79.943 113.972 C 79.943 113.785,80.039 113.632,80.157 113.631 C 80.520 113.628,81.370 111.913,81.370 111.183 C 81.370 110.803,81.499 110.493,81.656 110.493 C 81.813 110.493,81.941 109.793,81.941 108.939 C 81.941 108.085,81.813 107.306,81.656 107.209 C 81.499 107.112,81.370 106.708,81.370 106.311 C 81.370 105.055,79.032 102.068,77.809 101.761 C 77.412 101.661,77.088 101.465,77.088 101.325 C 77.088 101.185,76.767 101.071,76.374 101.071 C 75.981 101.071,75.660 100.942,75.660 100.785 C 75.660 100.442,73.696 100.434,73.091 100.774 M115.489 112.447 C 113.207 113.319,112.085 114.092,111.800 114.990 C 111.688 115.343,111.486 115.632,111.351 115.632 C 110.381 115.632,109.398 121.444,110.308 121.794 C 110.833 121.995,110.949 122.950,110.469 123.110 C 110.138 123.221,111.034 125.048,111.420 125.052 C 111.538 125.053,111.635 125.222,111.635 125.428 C 111.635 127.200,118.631 129.483,119.569 128.017 C 119.680 127.843,120.093 127.604,120.485 127.487 C 121.348 127.229,122.769 125.948,122.769 125.428 C 122.769 125.222,122.889 125.054,123.036 125.054 C 123.182 125.054,123.392 124.764,123.502 124.411 C 123.613 124.058,123.828 123.689,123.980 123.591 C 124.906 122.995,124.038 115.632,123.042 115.632 C 122.892 115.632,122.769 115.461,122.769 115.253 C 122.769 113.644,117.586 111.646,115.489 112.447 " stroke="none" fill="#fcfcfc" fill-rule="evenodd"></path><path id="path1" d="M116.774 28.447 C 115.722 28.649,114.204 29.394,114.204 29.706 C 114.204 29.856,114.037 29.979,113.834 29.979 C 112.861 29.979,110.207 33.832,110.207 35.245 C 110.207 35.489,110.084 35.689,109.934 35.689 C 109.784 35.689,109.623 36.620,109.577 37.757 L 109.493 39.826 108.351 40.464 C 107.723 40.815,107.016 41.192,106.781 41.301 C 106.545 41.411,106.288 41.574,106.210 41.664 C 105.999 41.906,105.087 42.432,103.640 43.149 C 102.934 43.499,101.970 44.074,101.499 44.426 C 101.028 44.778,100.289 45.154,99.857 45.262 C 99.425 45.370,99.072 45.564,99.072 45.693 C 99.072 45.822,98.494 46.216,97.787 46.569 C 97.081 46.922,96.502 47.306,96.502 47.423 C 96.502 47.539,96.117 47.720,95.646 47.823 C 95.175 47.926,94.789 48.114,94.789 48.241 C 94.789 48.367,94.565 48.551,94.290 48.650 C 93.610 48.894,91.113 50.264,90.070 50.964 C 88.567 51.973,88.108 52.237,86.581 52.971 C 85.757 53.368,85.082 53.807,85.082 53.947 C 85.082 54.087,84.697 54.286,84.226 54.390 C 83.754 54.493,83.369 54.681,83.369 54.807 C 83.369 54.934,83.144 55.112,82.869 55.205 C 82.298 55.397,81.431 55.939,80.862 56.460 C 80.338 56.941,79.675 56.910,79.478 56.396 C 79.389 56.165,78.847 55.901,78.274 55.809 C 77.700 55.718,77.007 55.522,76.735 55.373 C 76.114 55.035,74.318 55.020,74.114 55.350 C 74.030 55.486,73.453 55.666,72.832 55.749 C 72.211 55.832,71.533 56.036,71.326 56.201 C 68.751 58.259,67.095 60.560,67.095 62.080 C 67.095 62.326,66.966 62.527,66.809 62.527 C 66.434 62.527,66.434 66.720,66.809 66.952 C 66.966 67.049,67.095 67.332,67.095 67.580 C 67.095 68.936,70.046 73.091,71.009 73.091 C 71.212 73.091,71.378 73.213,71.378 73.363 C 71.378 73.513,71.829 73.720,72.380 73.824 C 72.931 73.927,73.453 74.126,73.539 74.265 C 73.756 74.616,77.088 74.586,77.088 74.233 C 77.088 74.076,77.333 73.947,77.633 73.947 C 78.167 73.947,81.941 77.868,81.941 78.423 C 81.941 78.572,82.327 79.063,82.798 79.515 C 83.269 79.966,83.655 80.448,83.655 80.586 C 83.655 80.724,84.040 81.161,84.511 81.557 C 84.982 81.953,85.368 82.417,85.368 82.587 C 85.368 82.757,85.580 83.131,85.840 83.418 C 86.280 83.904,86.280 83.976,85.840 84.462 C 85.580 84.749,85.368 85.084,85.368 85.206 C 85.368 85.328,84.982 85.915,84.511 86.510 C 84.040 87.104,83.655 87.688,83.655 87.806 C 83.655 87.924,83.205 88.570,82.655 89.241 C 82.106 89.911,81.656 90.548,81.656 90.656 C 81.656 90.825,81.194 91.454,79.939 92.993 C 79.784 93.183,79.657 93.413,79.657 93.504 C 79.657 93.745,78.411 95.486,78.158 95.598 C 78.041 95.651,77.944 95.856,77.944 96.054 C 77.944 96.252,77.687 96.647,77.373 96.931 C 77.059 97.215,76.802 97.573,76.802 97.727 C 76.802 98.336,75.539 99.072,74.491 99.072 C 73.897 99.072,73.330 99.201,73.233 99.358 C 73.136 99.515,72.696 99.643,72.256 99.643 C 71.815 99.643,71.128 99.900,70.729 100.214 C 70.329 100.528,69.888 100.785,69.749 100.785 C 68.926 100.785,66.238 104.786,66.238 106.010 C 66.238 106.258,66.110 106.541,65.953 106.638 C 65.599 106.857,65.574 110.603,65.921 111.282 C 66.061 111.554,66.503 112.493,66.904 113.367 C 68.821 117.550,74.761 119.902,77.846 117.702 C 78.341 117.348,78.867 117.059,79.015 117.059 C 79.163 117.059,79.520 116.798,79.809 116.479 C 80.342 115.889,82.471 115.904,83.229 116.502 C 83.388 116.627,84.322 116.821,85.305 116.932 C 86.289 117.043,87.162 117.246,87.247 117.382 C 87.331 117.519,87.778 117.630,88.240 117.630 C 88.701 117.630,89.079 117.746,89.079 117.888 C 89.079 118.029,89.850 118.235,90.793 118.344 C 91.735 118.453,92.571 118.647,92.649 118.774 C 92.727 118.901,93.466 119.095,94.290 119.206 C 95.114 119.317,95.917 119.507,96.074 119.629 C 96.231 119.751,97.034 119.941,97.858 120.052 C 98.683 120.163,99.420 120.355,99.496 120.478 C 99.573 120.602,100.471 120.793,101.492 120.902 C 102.513 121.012,103.413 121.205,103.491 121.331 C 103.569 121.457,104.339 121.649,105.202 121.757 C 106.066 121.865,106.846 122.072,106.936 122.218 C 107.026 122.364,107.478 122.484,107.940 122.484 C 108.471 122.484,108.779 122.631,108.779 122.886 C 108.779 123.621,110.296 126.323,111.321 127.414 C 116.091 132.492,124.905 129.159,125.813 121.934 C 125.962 120.750,126.238 120.362,128.767 117.773 C 130.301 116.203,131.602 114.759,131.659 114.564 C 131.716 114.370,137.972 107.998,145.560 100.404 C 159.758 86.195,160.136 85.868,160.906 87.115 C 161.112 87.448,163.757 87.438,164.386 87.101 C 164.659 86.955,165.464 86.572,166.176 86.249 C 172.107 83.560,172.986 72.118,167.452 69.636 C 166.621 69.264,165.768 68.707,165.539 68.386 C 165.060 67.717,160.026 68.063,158.999 68.836 C 157.031 70.315,158.116 71.175,143.412 56.474 C 135.984 49.048,129.907 42.862,129.907 42.728 C 129.907 42.594,129.329 41.897,128.622 41.181 L 127.338 39.877 127.338 37.783 C 127.338 36.577,127.216 35.689,127.052 35.689 C 126.895 35.689,126.767 35.442,126.767 35.141 C 126.767 31.466,121.033 27.625,116.774 28.447 M119.752 29.661 C 119.838 29.800,120.374 30.001,120.943 30.108 C 122.127 30.330,124.349 32.370,125.160 33.978 C 125.895 35.437,126.149 38.829,125.523 38.829 C 125.009 38.829,124.867 39.822,125.339 40.114 C 125.818 40.410,125.661 41.155,124.911 42.138 C 124.518 42.653,124.197 43.187,124.197 43.325 C 124.197 45.039,116.503 47.295,115.982 45.734 C 115.920 45.548,115.710 45.396,115.515 45.396 C 115.320 45.396,114.858 45.075,114.490 44.682 C 114.121 44.290,113.656 43.969,113.456 43.969 C 113.111 43.969,112.433 42.980,112.037 41.899 C 111.936 41.624,111.740 41.399,111.601 41.399 C 111.233 41.399,111.293 40.427,111.685 40.035 C 111.942 39.778,111.900 39.566,111.502 39.126 C 110.545 38.068,111.269 34.193,112.666 32.897 C 112.963 32.622,113.344 32.142,113.514 31.830 C 113.684 31.519,114.101 31.137,114.442 30.982 C 114.782 30.827,115.061 30.608,115.061 30.495 C 115.061 30.382,115.512 30.205,116.063 30.102 C 116.614 29.998,117.136 29.800,117.222 29.661 C 117.426 29.331,119.548 29.331,119.752 29.661 M110.410 41.685 C 110.492 41.999,110.659 42.256,110.780 42.256 C 110.902 42.256,111.085 42.588,111.187 42.994 C 111.289 43.401,111.682 44.067,112.060 44.474 C 112.734 45.202,112.399 46.824,111.573 46.824 C 111.450 46.824,111.349 46.957,111.349 47.121 C 111.349 47.459,110.175 49.201,109.850 49.346 C 109.732 49.398,109.636 49.603,109.636 49.801 C 109.636 49.999,109.379 50.394,109.065 50.678 C 108.751 50.962,108.494 51.309,108.494 51.448 C 108.494 51.587,108.367 51.857,108.213 52.046 C 106.951 53.594,106.495 54.215,106.495 54.390 C 106.495 54.502,106.110 55.080,105.639 55.675 C 105.168 56.269,104.782 56.853,104.782 56.971 C 104.782 57.089,104.333 57.735,103.783 58.406 C 103.233 59.076,102.784 59.719,102.784 59.833 C 102.784 59.947,102.334 60.590,101.784 61.261 C 101.235 61.931,100.785 62.560,100.785 62.658 C 100.785 62.907,99.546 64.648,99.286 64.763 C 99.168 64.816,99.072 65.021,99.072 65.219 C 99.072 65.417,98.815 65.811,98.501 66.096 C 98.187 66.380,97.930 66.730,97.930 66.874 C 97.930 67.018,97.769 67.312,97.573 67.527 C 97.377 67.741,96.895 68.375,96.502 68.935 C 95.804 69.930,94.557 70.166,94.266 69.358 C 94.214 69.212,93.930 69.094,93.635 69.094 C 93.341 69.094,91.976 68.515,90.603 67.809 C 89.230 67.102,87.991 66.524,87.851 66.524 C 87.527 66.524,85.558 65.614,85.368 65.376 C 85.289 65.278,85.000 65.115,84.725 65.013 C 84.381 64.886,84.226 64.521,84.226 63.837 C 84.226 63.292,84.097 62.767,83.940 62.670 C 83.783 62.572,83.655 62.300,83.655 62.064 C 83.655 61.451,82.293 58.654,81.792 58.238 C 81.299 57.830,81.239 57.388,81.675 57.388 C 81.843 57.388,82.389 57.098,82.888 56.744 C 84.290 55.753,84.895 55.387,85.439 55.205 C 85.714 55.112,85.939 54.934,85.939 54.807 C 85.939 54.681,86.324 54.493,86.795 54.390 C 87.266 54.286,87.652 54.104,87.652 53.985 C 87.652 53.866,88.326 53.424,89.151 53.003 C 90.741 52.192,91.279 51.877,92.640 50.964 C 93.683 50.264,96.180 48.894,96.859 48.650 C 97.134 48.551,97.359 48.367,97.359 48.241 C 97.359 48.114,97.744 47.926,98.216 47.823 C 98.687 47.720,99.072 47.546,99.072 47.437 C 99.072 47.328,99.554 46.989,100.143 46.684 C 100.732 46.378,101.535 45.888,101.927 45.594 C 102.320 45.299,103.026 44.874,103.498 44.649 C 103.969 44.423,105.125 43.792,106.067 43.247 C 107.009 42.701,108.005 42.175,108.280 42.079 C 108.555 41.982,108.779 41.799,108.779 41.672 C 108.779 41.468,109.305 41.245,110.020 41.147 C 110.152 41.128,110.328 41.370,110.410 41.685 M154.269 69.321 L 155.933 71.092 155.024 72.876 C 154.323 74.253,154.073 75.183,153.931 76.945 L 153.747 79.229 146.610 79.403 C 142.684 79.499,136.629 79.596,133.155 79.618 L 126.838 79.657 126.710 77.207 C 126.639 75.859,126.440 74.669,126.268 74.563 C 126.096 74.457,125.859 73.986,125.741 73.516 C 125.294 71.735,121.749 68.808,120.039 68.808 C 119.656 68.808,119.343 68.680,119.343 68.522 C 119.343 68.365,118.765 68.237,118.059 68.237 C 117.352 68.237,116.774 68.349,116.774 68.485 C 116.774 68.621,116.269 68.801,115.652 68.883 C 115.034 68.966,114.360 69.168,114.153 69.331 C 112.585 70.569,111.064 72.087,111.064 72.413 C 111.064 72.629,110.945 72.805,110.801 72.805 C 110.656 72.805,110.453 73.191,110.350 73.662 C 110.246 74.133,110.043 74.518,109.899 74.518 C 109.754 74.518,109.636 74.843,109.636 75.241 C 109.636 75.638,109.461 76.031,109.246 76.113 C 108.827 76.274,106.495 75.368,106.495 75.045 C 106.495 74.937,106.110 74.764,105.639 74.661 C 105.168 74.557,104.782 74.355,104.782 74.210 C 104.782 74.065,104.571 73.947,104.313 73.947 C 104.054 73.947,102.908 73.498,101.765 72.948 C 100.623 72.398,99.591 71.949,99.473 71.949 C 97.758 71.949,96.829 70.491,97.821 69.357 C 98.038 69.109,98.216 68.755,98.216 68.571 C 98.216 68.387,98.347 68.237,98.508 68.237 C 98.669 68.237,98.926 67.948,99.078 67.595 C 99.487 66.649,99.997 65.888,100.658 65.235 C 100.981 64.916,101.334 64.466,101.442 64.234 C 101.735 63.604,102.264 62.793,103.141 61.630 C 103.572 61.057,103.926 60.497,103.926 60.385 C 103.926 60.274,104.311 59.695,104.782 59.101 C 105.253 58.506,105.639 57.932,105.639 57.826 C 105.639 57.720,106.121 57.032,106.711 56.297 C 107.971 54.726,108.449 54.003,108.678 53.319 C 108.771 53.044,108.963 52.819,109.105 52.819 C 109.248 52.819,109.490 52.530,109.642 52.177 C 109.891 51.601,110.224 51.029,110.839 50.123 C 110.952 49.957,111.434 49.355,111.910 48.785 C 112.387 48.214,112.777 47.624,112.777 47.473 C 112.777 46.624,113.926 46.134,114.759 46.626 C 115.209 46.892,115.839 47.109,116.159 47.109 C 116.478 47.109,116.819 47.238,116.916 47.395 C 117.134 47.747,119.740 47.773,120.418 47.429 C 120.691 47.290,121.492 46.912,122.198 46.587 C 123.743 45.877,125.316 44.265,126.070 42.616 L 126.624 41.407 139.615 54.479 C 146.759 61.668,153.354 68.347,154.269 69.321 M78.631 57.355 C 79.851 57.997,81.085 59.053,81.085 59.455 C 81.085 59.595,81.438 60.173,81.870 60.739 C 82.702 61.830,83.094 67.660,82.370 68.176 C 82.043 68.409,81.486 69.259,81.115 70.093 C 80.763 70.882,79.656 71.841,78.801 72.097 C 78.408 72.215,77.995 72.454,77.883 72.629 C 76.923 74.131,69.665 71.843,69.665 70.039 C 69.665 69.833,69.565 69.665,69.444 69.665 C 68.250 69.665,67.534 63.140,68.517 61.214 C 69.664 58.968,71.152 57.663,73.662 56.705 C 74.511 56.380,77.529 56.776,78.631 57.355 M85.300 66.775 C 87.409 67.845,90.189 69.094,90.461 69.094 C 90.643 69.094,90.792 69.222,90.792 69.379 C 90.792 69.536,90.993 69.665,91.239 69.665 C 91.752 69.665,94.789 71.008,94.789 71.235 C 94.789 71.523,94.070 72.669,93.148 73.852 C 92.637 74.507,92.220 75.131,92.220 75.239 C 92.220 75.407,91.758 76.036,90.502 77.575 C 90.348 77.765,90.221 77.995,90.221 78.087 C 90.221 78.328,88.975 80.068,88.722 80.181 C 88.605 80.233,88.508 80.438,88.508 80.636 C 88.508 80.834,88.251 81.229,87.937 81.513 C 87.623 81.797,87.366 82.203,87.366 82.414 C 87.366 82.625,87.238 82.798,87.081 82.798 C 86.924 82.798,86.795 82.609,86.795 82.378 C 86.795 82.147,86.410 81.674,85.939 81.325 C 85.468 80.977,85.082 80.548,85.082 80.371 C 85.082 80.194,84.697 79.680,84.226 79.229 C 83.754 78.778,83.369 78.301,83.369 78.169 C 83.369 78.037,82.994 77.515,82.536 77.009 C 82.078 76.503,81.221 75.536,80.633 74.860 L 79.564 73.632 81.020 72.148 C 81.821 71.332,82.562 70.310,82.668 69.879 C 82.774 69.447,82.964 69.094,83.092 69.094 C 83.219 69.094,83.413 68.676,83.522 68.166 C 83.849 66.638,84.314 66.275,85.300 66.775 M163.883 69.379 C 163.883 69.536,164.152 69.665,164.481 69.665 C 165.526 69.665,168.451 71.616,168.451 72.314 C 168.451 72.456,168.708 72.899,169.022 73.298 C 169.336 73.698,169.593 74.385,169.593 74.825 C 169.593 75.266,169.722 75.706,169.879 75.803 C 170.036 75.900,170.164 76.671,170.164 77.516 C 170.164 78.361,170.036 79.132,169.879 79.229 C 169.722 79.326,169.593 79.736,169.593 80.140 C 169.593 81.380,167.407 84.511,166.542 84.511 C 166.336 84.511,166.167 84.634,166.167 84.784 C 166.167 84.934,165.716 85.141,165.165 85.244 C 164.613 85.348,164.092 85.546,164.006 85.685 C 163.804 86.012,161.395 86.016,161.193 85.690 C 161.109 85.553,160.641 85.362,160.153 85.264 C 158.109 84.855,155.744 82.242,155.815 80.470 C 155.846 79.682,155.742 79.372,155.445 79.372 C 154.980 79.372,154.827 76.106,155.279 75.827 C 155.415 75.743,155.595 75.163,155.678 74.538 C 155.767 73.878,156.112 73.127,156.502 72.745 C 156.871 72.383,157.312 71.831,157.482 71.518 C 157.652 71.205,158.070 70.822,158.410 70.667 C 158.751 70.512,159.029 70.293,159.029 70.181 C 159.029 70.068,159.480 69.891,160.032 69.788 C 160.583 69.684,161.105 69.486,161.191 69.347 C 161.407 68.997,163.883 69.026,163.883 69.379 M121.316 70.562 C 123.076 71.502,124.775 73.593,124.972 75.062 C 125.058 75.705,125.240 76.231,125.377 76.231 C 125.724 76.231,125.688 79.584,125.339 79.800 C 125.182 79.897,125.054 80.337,125.054 80.778 C 125.054 81.218,124.797 81.906,124.483 82.305 C 124.168 82.704,123.911 83.149,123.911 83.293 C 123.911 84.000,120.939 85.939,119.854 85.939 C 119.573 85.939,119.343 86.067,119.343 86.224 C 119.343 86.381,118.837 86.510,118.218 86.510 C 117.599 86.510,117.014 86.381,116.916 86.224 C 116.819 86.067,116.426 85.939,116.043 85.939 C 115.660 85.939,115.346 85.824,115.346 85.684 C 115.346 85.544,115.009 85.345,114.596 85.241 C 113.891 85.064,112.206 83.641,112.206 83.222 C 112.206 83.117,111.949 82.704,111.635 82.305 C 111.320 81.906,111.064 81.218,111.064 80.778 C 111.064 80.337,110.935 79.897,110.778 79.800 C 110.356 79.539,110.431 78.771,110.934 78.215 C 111.333 77.774,111.333 77.684,110.934 77.285 C 110.452 76.803,110.347 76.231,110.740 76.231 C 110.877 76.231,111.060 75.699,111.147 75.048 C 111.234 74.397,111.415 73.787,111.549 73.692 C 111.683 73.597,112.223 72.966,112.749 72.290 C 113.571 71.234,114.602 70.558,116.488 69.838 C 117.380 69.498,120.083 69.903,121.316 70.562 M97.855 72.520 C 98.441 72.834,99.083 73.091,99.282 73.091 C 99.481 73.091,99.643 73.209,99.643 73.353 C 99.643 73.498,100.029 73.701,100.500 73.804 C 100.971 73.908,101.356 74.111,101.356 74.255 C 101.356 74.400,101.608 74.518,101.917 74.518 C 102.225 74.518,103.478 75.016,104.701 75.624 C 105.923 76.232,107.454 76.968,108.103 77.259 C 109.241 77.770,109.289 77.845,109.442 79.365 C 109.723 82.153,111.602 85.098,113.919 86.384 C 114.468 86.688,115.010 87.066,115.122 87.223 C 115.396 87.608,120.733 87.595,120.995 87.209 C 121.107 87.043,121.653 86.697,122.209 86.439 C 123.479 85.848,124.703 84.498,125.635 82.658 L 126.359 81.228 133.762 81.151 C 138.122 81.106,141.282 80.960,141.447 80.794 C 141.613 80.628,144.169 80.518,147.737 80.523 C 154.213 80.533,154.543 80.602,154.903 82.035 C 155.009 82.460,155.660 83.435,156.349 84.201 C 158.262 86.328,160.000 84.178,140.807 103.426 C 125.527 118.749,125.625 118.659,125.625 117.488 C 125.625 117.095,125.506 116.774,125.362 116.774 C 125.217 116.774,125.014 116.388,124.911 115.917 C 124.807 115.446,124.604 115.061,124.460 115.061 C 124.315 115.061,124.197 114.906,124.197 114.717 C 124.197 114.249,122.462 112.491,122.000 112.491 C 121.795 112.491,121.627 112.395,121.626 112.277 C 121.623 111.918,119.911 111.064,119.194 111.064 C 118.824 111.064,118.441 110.935,118.344 110.778 C 118.247 110.621,117.733 110.493,117.202 110.493 C 116.671 110.493,116.157 110.621,116.060 110.778 C 115.963 110.935,115.565 111.064,115.177 111.064 C 114.549 111.064,113.164 111.738,112.777 112.232 C 112.163 113.015,110.207 112.513,110.207 111.572 C 110.207 111.429,109.893 110.967,109.510 110.546 C 107.458 108.288,106.495 107.117,106.495 106.878 C 106.495 106.731,106.115 106.296,105.651 105.911 C 105.186 105.526,104.801 105.074,104.794 104.907 C 104.788 104.740,104.397 104.234,103.926 103.783 C 103.455 103.332,103.069 102.843,103.069 102.697 C 103.069 102.551,102.298 101.562,101.356 100.500 C 100.414 99.437,99.643 98.476,99.643 98.364 C 99.643 98.252,98.936 97.356,98.073 96.372 C 96.249 94.295,96.265 94.340,97.285 94.084 C 97.715 93.976,98.133 93.801,98.213 93.696 C 98.421 93.422,99.357 92.864,100.393 92.396 C 100.885 92.174,101.369 91.859,101.470 91.696 C 101.571 91.533,102.325 91.061,103.146 90.648 C 105.333 89.547,107.150 88.512,107.637 88.090 C 107.873 87.886,108.387 87.621,108.779 87.502 C 109.172 87.382,109.694 87.055,109.938 86.773 C 110.183 86.492,110.729 86.176,111.152 86.070 C 112.008 85.855,112.143 85.337,111.486 84.792 C 111.133 84.499,110.957 84.519,110.536 84.900 C 110.252 85.157,109.869 85.368,109.685 85.368 C 109.501 85.368,109.350 85.466,109.350 85.586 C 109.350 85.706,108.837 86.027,108.208 86.299 C 107.580 86.571,107.066 86.908,107.066 87.049 C 107.066 87.189,106.723 87.390,106.304 87.496 C 105.884 87.601,105.210 87.948,104.805 88.266 C 104.400 88.585,103.683 89.026,103.212 89.246 C 102.741 89.466,101.842 89.971,101.213 90.367 C 100.585 90.763,99.814 91.221,99.500 91.383 C 99.186 91.545,98.415 91.990,97.787 92.372 C 97.159 92.753,96.464 93.154,96.241 93.262 C 95.832 93.462,92.535 90.124,92.515 89.490 C 92.510 89.323,92.120 88.817,91.649 88.365 C 91.178 87.914,90.792 87.435,90.792 87.301 C 90.792 87.167,90.295 86.581,89.688 85.999 C 87.848 84.235,87.960 82.759,90.094 80.652 C 90.417 80.334,90.770 79.883,90.878 79.651 C 91.171 79.022,91.700 78.211,92.577 77.048 C 93.009 76.475,93.362 75.915,93.362 75.803 C 93.362 75.691,93.747 75.113,94.218 74.518 C 94.690 73.923,95.075 73.337,95.075 73.215 C 95.075 72.083,96.416 71.748,97.855 72.520 M88.122 86.067 C 88.649 86.609,89.079 87.162,89.079 87.296 C 89.079 87.430,89.529 87.976,90.079 88.508 C 90.628 89.041,91.078 89.599,91.078 89.749 C 91.078 89.898,91.527 90.458,92.077 90.991 C 92.627 91.525,93.076 92.046,93.076 92.149 C 93.076 92.251,93.487 92.759,93.989 93.277 C 94.684 93.994,94.786 94.218,94.417 94.218 C 94.151 94.218,93.933 94.318,93.933 94.439 C 93.933 94.560,93.451 94.906,92.862 95.208 C 92.273 95.510,91.406 96.025,90.935 96.353 C 90.464 96.681,89.757 97.112,89.365 97.309 C 88.972 97.506,87.880 98.112,86.938 98.656 C 85.996 99.199,85.000 99.723,84.725 99.820 C 84.450 99.916,84.226 100.099,84.226 100.225 C 84.226 100.351,83.840 100.539,83.369 100.642 C 82.898 100.746,82.512 100.921,82.512 101.032 C 82.512 101.833,80.718 102.264,80.121 101.605 C 79.456 100.872,78.739 100.371,77.730 99.935 C 77.079 99.654,76.844 99.072,77.380 99.072 C 77.541 99.072,77.798 98.783,77.951 98.430 C 78.360 97.484,78.869 96.723,79.530 96.070 C 79.853 95.751,80.206 95.301,80.314 95.069 C 80.607 94.439,81.136 93.628,82.013 92.465 C 82.445 91.893,82.798 91.332,82.798 91.221 C 82.798 91.109,83.183 90.531,83.655 89.936 C 84.126 89.341,84.511 88.767,84.511 88.661 C 84.511 88.555,85.025 87.858,85.653 87.114 C 86.281 86.369,86.795 85.607,86.795 85.421 C 86.795 84.871,87.109 85.023,88.122 86.067 M96.876 96.912 C 97.613 97.765,98.216 98.553,98.216 98.664 C 98.216 98.774,99.051 99.798,100.071 100.938 C 101.092 102.079,101.927 103.106,101.927 103.220 C 101.927 103.437,103.444 105.261,104.653 106.498 C 105.038 106.893,105.353 107.350,105.353 107.516 C 105.353 107.681,105.739 108.185,106.210 108.637 C 106.681 109.088,107.072 109.594,107.078 109.761 C 107.085 109.928,107.471 110.379,107.935 110.765 C 108.399 111.150,108.779 111.593,108.779 111.750 C 108.779 111.907,109.161 112.429,109.627 112.910 C 110.419 113.727,110.600 115.061,109.919 115.061 C 109.797 115.061,109.610 115.413,109.502 115.843 C 109.394 116.273,109.181 116.702,109.030 116.796 C 108.878 116.889,108.676 117.896,108.581 119.032 L 108.408 121.098 106.952 120.903 C 106.151 120.795,105.368 120.607,105.211 120.485 C 105.054 120.364,104.251 120.173,103.426 120.062 C 102.602 119.952,101.864 119.757,101.785 119.630 C 101.707 119.503,100.872 119.310,99.929 119.201 C 98.987 119.091,98.216 118.901,98.216 118.777 C 98.216 118.654,97.477 118.461,96.574 118.349 C 95.671 118.238,94.804 118.046,94.647 117.923 C 94.490 117.801,93.624 117.612,92.724 117.503 C 91.824 117.394,91.021 117.198,90.940 117.067 C 90.859 116.937,90.022 116.740,89.079 116.631 C 88.136 116.522,87.294 116.316,87.206 116.175 C 87.119 116.033,86.741 115.917,86.367 115.917 C 85.993 115.917,85.617 115.804,85.531 115.665 C 85.445 115.526,84.635 115.321,83.730 115.209 C 81.535 114.938,81.215 114.653,81.947 113.625 C 82.261 113.185,82.597 112.426,82.694 111.938 C 82.792 111.451,82.984 110.982,83.120 110.898 C 83.445 110.697,83.443 107.204,83.118 106.563 C 81.346 103.071,81.328 103.183,83.869 101.878 C 84.536 101.535,85.082 101.159,85.082 101.043 C 85.082 100.926,85.468 100.746,85.939 100.642 C 86.410 100.539,86.795 100.351,86.795 100.225 C 86.795 100.099,87.020 99.916,87.295 99.820 C 87.570 99.723,88.565 99.198,89.507 98.652 C 90.450 98.107,91.629 97.466,92.129 97.228 C 92.629 96.991,93.126 96.654,93.234 96.479 C 93.407 96.198,94.950 95.402,95.377 95.372 C 95.465 95.365,96.140 96.059,96.876 96.912 M77.067 101.026 C 77.157 101.165,77.547 101.378,77.933 101.499 C 79.035 101.843,80.170 103.145,81.291 105.353 C 82.323 107.385,81.866 112.615,80.586 113.433 C 80.389 113.559,80.228 113.824,80.228 114.022 C 80.228 114.472,78.747 115.917,78.286 115.917 C 78.098 115.917,77.944 116.040,77.944 116.190 C 77.944 116.340,77.493 116.547,76.942 116.650 C 76.391 116.754,75.869 116.952,75.783 117.092 C 75.697 117.231,75.128 117.345,74.518 117.345 C 73.909 117.345,73.339 117.231,73.253 117.092 C 73.167 116.952,72.631 116.751,72.062 116.644 C 67.745 115.834,65.200 106.056,68.730 103.840 C 68.930 103.715,69.094 103.448,69.094 103.248 C 69.094 102.580,70.644 101.488,72.662 100.735 C 73.391 100.462,76.851 100.692,77.067 101.026 M118.610 112.173 C 118.696 112.312,119.217 112.511,119.768 112.614 C 120.320 112.718,120.771 112.925,120.771 113.075 C 120.771 113.225,120.950 113.348,121.170 113.348 C 121.509 113.348,122.173 114.017,123.655 115.854 C 123.817 116.056,124.024 116.698,124.113 117.282 C 124.203 117.866,124.406 118.509,124.565 118.711 C 124.764 118.963,124.734 119.302,124.468 119.799 C 124.152 120.390,124.148 120.627,124.448 121.108 C 124.711 121.529,124.728 121.782,124.506 122.004 C 124.336 122.174,124.197 122.655,124.197 123.074 C 124.197 123.492,123.940 124.161,123.626 124.560 C 123.312 124.960,123.055 125.403,123.055 125.545 C 123.055 126.242,120.130 128.194,119.085 128.194 C 118.756 128.194,118.487 128.323,118.487 128.480 C 118.487 128.637,117.909 128.765,117.202 128.765 C 116.495 128.765,115.917 128.637,115.917 128.480 C 115.917 128.323,115.648 128.194,115.319 128.194 C 114.274 128.194,111.349 126.242,111.349 125.545 C 111.349 125.403,111.087 124.953,110.767 124.546 C 110.363 124.033,110.236 123.571,110.354 123.038 C 110.464 122.536,110.368 122.115,110.079 121.826 C 109.604 121.351,109.436 118.487,109.884 118.487 C 110.020 118.487,110.202 117.966,110.287 117.329 C 110.379 116.646,110.716 115.907,111.110 115.527 C 111.477 115.172,111.916 114.632,112.086 114.328 C 112.256 114.025,112.674 113.649,113.014 113.494 C 113.355 113.339,113.633 113.120,113.633 113.007 C 113.633 112.895,114.084 112.718,114.636 112.614 C 115.187 112.511,115.708 112.312,115.794 112.173 C 115.880 112.034,116.514 111.920,117.202 111.920 C 117.890 111.920,118.523 112.034,118.610 112.173 " stroke="none" fill="#ec1c24" fill-rule="evenodd"></path><path id="path2" d="" stroke="none" fill="#f4c4100" fill-rule="evenodd"></path><path id="path3" d="" stroke="none" fill="#f4c4100" fill-rule="evenodd"></path><path id="path4" d="" stroke="none" fill="#f4c4100" fill-rule="evenodd"></path><path id="path5" d="" stroke="none" fill="#f4c4100" fill-rule="evenodd"></path><path id="path6" d="" stroke="none" fill="#f4c4100" fill-rule="evenodd"></path><path id="path7" d="" stroke="none" fill="#f4c4100" fill-rule="evenodd"></path><path id="path8" d="" stroke="none" fill="#f4c4100" fill-rule="evenodd"></path></g></svg>