<svg width="64" height="64" xmlns="http://www.w3.org/2000/svg">

 <g>
  <title>background</title>
  <rect fill="none" id="canvas_background" height="402" width="582" y="-1" x="-1"/>
 </g>
 <g>
  <title>Layer 1</title>
  <path fill="#ff0000" id="svg_1" d="m13.464,36.8c-1.05,-0.507 -2.222,-0.8 -3.464,-0.8c-4.411,0 -8,3.589 -8,8s3.589,8 8,8c2.768,0 5.211,-1.414 6.648,-3.557l7.557,3.783c-0.13,0.571 -0.205,1.164 -0.205,1.774c0,4.411 3.589,8 8,8s8,-3.589 8,-8c0,-1.658 -0.507,-3.199 -1.375,-4.478l10.619,-11.103c1.332,0.988 2.974,1.581 4.756,1.581c4.411,0 8,-3.589 8,-8s-3.589,-8 -8,-8c-1.846,0 -3.542,0.634 -4.898,1.688l-10.79,-10.79c1.054,-1.356 1.688,-3.052 1.688,-4.898c0,-4.411 -3.589,-8 -8,-8s-8,3.589 -8,8c0,0.608 0.074,1.199 0.204,1.769l-7.092,2.584c-1.33,-2.581 -4.015,-4.353 -7.112,-4.353c-4.411,0 -8,3.589 -8,8s3.589,8 8,8c1.138,0 2.219,-0.242 3.2,-0.673l3.681,6.195l-3.417,5.278zm-3.464,13.2c-3.309,0 -6,-2.691 -6,-6s2.691,-6 6,-6s6,2.691 6,6s-2.691,6 -6,6zm7.539,-3.349c0.293,-0.831 0.461,-1.721 0.461,-2.651c0,-2.453 -1.112,-4.649 -2.855,-6.117l2.876,-4.442l8.671,14.591c-0.73,0.65 -1.341,1.428 -1.794,2.303l-7.359,-3.684zm14.461,-28.651c1.846,0 3.542,-0.634 4.898,-1.688l10.791,10.791c-0.647,0.832 -1.131,1.793 -1.41,2.839l-6.282,-0.864c-0.001,-0.026 0.003,-0.052 0.003,-0.078c0,-4.411 -3.589,-8 -8,-8c-2.768,0 -5.212,1.414 -6.648,3.557l-1.193,-0.596l4.378,-6.761c1.049,0.507 2.221,0.8 3.463,0.8zm1,28.069l0,-9.139c3.25,-0.408 5.894,-2.77 6.722,-5.872l6.282,0.864c0,0.026 -0.004,0.052 -0.004,0.078c0,1.91 0.674,3.663 1.795,5.04l-10.5,10.979c-1.177,-1.043 -2.658,-1.744 -4.295,-1.95zm-1,-23.069c3.309,0 6,2.691 6,6s-2.691,6 -6,6s-6,-2.691 -6,-6s2.691,-6 6,-6zm-7.539,3.349c-0.293,0.831 -0.461,1.721 -0.461,2.651c0,4.072 3.06,7.436 7,7.931l0,9.139c-0.948,0.119 -1.843,0.403 -2.658,0.824l-9.108,-15.327l3.831,-5.916l1.396,0.698zm7.539,33.651c-3.309,0 -6,-2.691 -6,-6s2.691,-6 6,-6s6,2.691 6,6s-2.691,6 -6,6zm22,-34c3.309,0 6,2.691 6,6s-2.691,6 -6,6s-6,-2.691 -6,-6s2.691,-6 6,-6zm-22,-22c3.309,0 6,2.691 6,6s-2.691,6 -6,6s-6,-2.691 -6,-6s2.691,-6 6,-6zm-7.112,9.647c0.489,0.949 1.158,1.788 1.967,2.47l-4.496,6.944l-4.82,-2.41c0.293,-0.831 0.461,-1.721 0.461,-2.651c0,-0.608 -0.074,-1.199 -0.204,-1.769l7.092,-2.584zm-20.888,4.353c0,-3.309 2.691,-6 6,-6s6,2.691 6,6s-2.691,6 -6,6s-6,-2.691 -6,-6zm10.915,6.299c0.67,-0.524 1.258,-1.148 1.733,-1.856l4.617,2.308l-3.171,4.897l-3.179,-5.349z"/>
 </g>
</svg>